<svg width="357" height="494" viewBox="0 0 357 494" fill="none" xmlns="http://www.w3.org/2000/svg">
<rect x="167" y="418" width="190" height="50" rx="25" fill="#60CBFE"/>
<rect y="323" width="177" height="55" rx="27.5" fill="#FEC82F"/>
<rect x="161" y="227" width="196" height="53" rx="26.5" fill="#60CBFE"/>
<rect y="128" width="148" height="53" rx="26.5" fill="#FEC82F"/>
<rect x="205" y="32" width="152" height="53" rx="26.5" fill="#60CBFE"/>
<path fill-rule="evenodd" clip-rule="evenodd" d="M176.734 0.12635C175.515 0.0425797 174.284 0 173.044 0C143.749 0 120 23.7486 120 53.0439C120 82.3392 143.749 106.088 173.044 106.088C174.284 106.088 175.515 106.045 176.734 105.961V0.12635Z" fill="#EBEBE5" fill-opacity="0.97"/>
<path fill-rule="evenodd" clip-rule="evenodd" d="M176.734 202.824C177.953 202.908 179.183 202.951 180.424 202.951C209.719 202.951 233.468 179.202 233.468 149.907C233.468 120.611 209.719 96.8628 180.424 96.8628C179.183 96.8628 177.953 96.9054 176.734 96.9891V202.824Z" fill="#EBEBE5" fill-opacity="0.97"/>
<path fill-rule="evenodd" clip-rule="evenodd" d="M176.734 193.852C175.515 193.768 174.284 193.725 173.044 193.725C143.749 193.725 120 217.474 120 246.769C120 276.065 143.749 299.813 173.044 299.813C174.284 299.813 175.515 299.771 176.734 299.687V193.852Z" fill="#EBEBE5" fill-opacity="0.97"/>
<path fill-rule="evenodd" clip-rule="evenodd" d="M176.734 388.039C175.515 387.955 174.284 387.912 173.044 387.912C143.749 387.912 120 411.661 120 440.956C120 470.251 143.749 494 173.044 494C174.284 494 175.515 493.957 176.734 493.874V388.039Z" fill="#EBEBE5" fill-opacity="0.97"/>
<path fill-rule="evenodd" clip-rule="evenodd" d="M176.734 397.011C177.953 397.095 179.183 397.137 180.424 397.137C209.719 397.137 233.468 373.389 233.468 344.093C233.468 314.798 209.719 291.05 180.424 291.05C179.183 291.05 177.953 291.092 176.734 291.176V397.011Z" fill="#EBEBE5" fill-opacity="0.97"/>
<path fill-rule="evenodd" clip-rule="evenodd" d="M176.734 105.961C177.953 106.045 179.183 106.088 180.424 106.088C209.719 106.088 233.468 82.3392 233.468 53.0439C233.468 23.7486 209.719 0 180.424 0C179.183 0 177.953 0.0425767 176.734 0.126348V105.961Z" fill="#60CBFE"/>
<path fill-rule="evenodd" clip-rule="evenodd" d="M176.734 299.687C177.953 299.771 179.183 299.813 180.424 299.813C209.719 299.813 233.468 276.065 233.468 246.769C233.468 217.474 209.719 193.725 180.424 193.725C179.183 193.725 177.953 193.768 176.734 193.852V299.687Z" fill="#60CBFE"/>
<path fill-rule="evenodd" clip-rule="evenodd" d="M176.734 493.874C177.953 493.957 179.183 494 180.424 494C209.719 494 233.468 470.251 233.468 440.956C233.468 411.661 209.719 387.912 180.424 387.912C179.183 387.912 177.953 387.955 176.734 388.039V493.874Z" fill="#60CBFE"/>
<path fill-rule="evenodd" clip-rule="evenodd" d="M176.734 291.176C175.515 291.092 174.284 291.049 173.044 291.049C143.749 291.049 120 314.798 120 344.093C120 373.389 143.749 397.137 173.044 397.137C174.284 397.137 175.515 397.095 176.734 397.011V291.176Z" fill="#FEC82F"/>
<path fill-rule="evenodd" clip-rule="evenodd" d="M176.734 96.9891C175.515 96.9054 174.284 96.8628 173.044 96.8628C143.749 96.8628 120 120.611 120 149.907C120 179.202 143.749 202.951 173.044 202.951C174.284 202.951 175.515 202.908 176.734 202.824V96.9891Z" fill="#FEC82F"/>
<path fill-rule="evenodd" clip-rule="evenodd" d="M176.734 0.12635C175.515 0.0425797 174.284 0 173.044 0C143.749 0 120 23.7486 120 53.0439C120 82.3392 143.749 106.088 173.044 106.088C174.284 106.088 175.515 106.045 176.734 105.961V0.12635Z" fill="#60CBFE"/>
<g filter="url(#filter0_ii_50_102)">
<circle cx="175.35" cy="53.0438" r="43.8189" fill="#EBECF0"/>
<circle cx="175.35" cy="53.0438" r="43.8189" fill="url(#paint0_linear_50_102)" fill-opacity="0.4" style="mix-blend-mode:soft-light"/>
</g>
<circle cx="175.35" cy="53.0438" r="43.3189" stroke="white" stroke-opacity="0.4"/>
<g filter="url(#filter1_ii_50_102)">
<circle cx="176.734" cy="149.907" r="43.8189" fill="#EBECF0"/>
<circle cx="176.734" cy="149.907" r="43.8189" fill="url(#paint1_linear_50_102)" fill-opacity="0.4" style="mix-blend-mode:soft-light"/>
</g>
<circle cx="176.734" cy="149.907" r="43.3189" stroke="white" stroke-opacity="0.4"/>
<g filter="url(#filter2_ii_50_102)">
<circle cx="177.195" cy="247.231" r="44.2801" fill="#EBECF0"/>
<circle cx="177.195" cy="247.231" r="44.2801" fill="url(#paint2_linear_50_102)" fill-opacity="0.4" style="mix-blend-mode:soft-light"/>
</g>
<circle cx="177.195" cy="247.231" r="43.7801" stroke="white" stroke-opacity="0.4"/>
<g filter="url(#filter3_ii_50_102)">
<circle cx="177.195" cy="344.093" r="44.2801" fill="#EBECF0"/>
<circle cx="177.195" cy="344.093" r="44.2801" fill="url(#paint3_linear_50_102)" fill-opacity="0.4" style="mix-blend-mode:soft-light"/>
</g>
<circle cx="177.195" cy="344.093" r="43.7801" stroke="white" stroke-opacity="0.4"/>
<path fill-rule="evenodd" clip-rule="evenodd" d="M176.734 388.039C175.515 387.955 174.284 387.912 173.044 387.912C143.749 387.912 120 411.661 120 440.956C120 470.251 143.749 494 173.044 494C174.284 494 175.515 493.957 176.734 493.874V388.039Z" fill="#60CBFE"/>
<g filter="url(#filter4_ii_50_102)">
<ellipse cx="176.5" cy="441" rx="44.5" ry="44" fill="#EBECF0"/>
<ellipse cx="176.5" cy="441" rx="44.5" ry="44" fill="url(#paint4_linear_50_102)" fill-opacity="0.4" style="mix-blend-mode:soft-light"/>
</g>
<path d="M220.5 441C220.5 465.019 200.806 484.5 176.5 484.5C152.194 484.5 132.5 465.019 132.5 441C132.5 416.981 152.194 397.5 176.5 397.5C200.806 397.5 220.5 416.981 220.5 441Z" stroke="white" stroke-opacity="0.4"/>
<circle cx="176.734" cy="53.0439" r="36.9001" fill="#60CBFE"/>
<circle cx="176.734" cy="150.829" r="36.9001" fill="#FEC82F"/>
<circle cx="177.656" cy="248.153" r="36.9001" fill="#60CBFE"/>
<circle cx="176.734" cy="345.477" r="36.9001" fill="#FEC82F"/>
<circle cx="176.734" cy="443.262" r="36.9001" fill="#60CBFE"/>
<path d="M176.508 144.009C175.061 144.009 173.707 144.58 172.681 145.622C171.66 146.665 171.094 148.042 171.094 149.512C171.094 150.983 171.66 152.36 172.681 153.402C173.707 154.44 175.061 155.015 176.508 155.015C177.954 155.015 179.309 154.44 180.335 153.402C181.356 152.36 181.922 150.983 181.922 149.512C181.922 148.042 181.356 146.665 180.335 145.622C179.834 145.109 179.237 144.702 178.581 144.426C177.924 144.149 177.219 144.007 176.508 144.009ZM196.455 155.59L193.291 152.841C193.441 151.907 193.518 150.953 193.518 150.004C193.518 149.055 193.441 148.096 193.291 147.167L196.455 144.418C196.694 144.21 196.865 143.933 196.945 143.623C197.026 143.314 197.012 142.987 196.905 142.687L196.861 142.559C195.991 140.084 194.686 137.789 193.01 135.787L192.923 135.684C192.72 135.441 192.449 135.266 192.145 135.182C191.842 135.099 191.521 135.111 191.225 135.217L187.297 136.638C185.845 135.428 184.229 134.474 182.478 133.81L181.718 129.635C181.661 129.321 181.511 129.031 181.288 128.805C181.065 128.58 180.78 128.428 180.47 128.371L180.34 128.347C177.824 127.884 175.173 127.884 172.657 128.347L172.526 128.371C172.217 128.428 171.931 128.58 171.708 128.805C171.485 129.031 171.335 129.321 171.278 129.635L170.514 133.83C168.779 134.499 167.163 135.451 165.729 136.648L161.771 135.217C161.475 135.11 161.154 135.098 160.851 135.181C160.547 135.265 160.276 135.44 160.073 135.684L159.986 135.787C158.314 137.791 157.009 140.085 156.135 142.559L156.091 142.687C155.874 143.301 156.053 143.99 156.541 144.418L159.744 147.196C159.594 148.121 159.522 149.065 159.522 149.999C159.522 150.943 159.594 151.887 159.744 152.802L156.551 155.581C156.312 155.789 156.141 156.066 156.061 156.375C155.98 156.684 155.994 157.011 156.101 157.312L156.145 157.439C157.02 159.913 158.312 162.2 159.996 164.211L160.083 164.314C160.286 164.557 160.557 164.732 160.861 164.816C161.164 164.899 161.485 164.887 161.781 164.781L165.738 163.35C167.18 164.555 168.786 165.509 170.523 166.168L171.288 170.363C171.345 170.678 171.495 170.967 171.718 171.193C171.941 171.418 172.226 171.57 172.536 171.627L172.666 171.651C175.207 172.116 177.809 172.116 180.349 171.651L180.48 171.627C180.79 171.57 181.075 171.418 181.298 171.193C181.521 170.967 181.671 170.678 181.728 170.363L182.488 166.188C184.239 165.519 185.855 164.57 187.306 163.36L191.235 164.781C191.531 164.888 191.852 164.9 192.155 164.817C192.459 164.733 192.73 164.558 192.933 164.314L193.02 164.211C194.704 162.19 195.995 159.913 196.871 157.439L196.915 157.312C197.123 156.702 196.944 156.018 196.455 155.59ZM176.508 158.157C171.81 158.157 168.003 154.287 168.003 149.512C168.003 144.737 171.81 140.867 176.508 140.867C181.206 140.867 185.013 144.737 185.013 149.512C185.013 154.287 181.206 158.157 176.508 158.157Z" fill="#111111"/>
<path d="M167.727 243.208C168.208 244.685 168.675 246.167 169.129 247.654C170.557 248.604 171.974 249.572 173.381 250.556C174.175 251.116 174.966 251.685 175.744 252.282C176.131 252.577 176.51 252.882 176.881 253.198L177.111 244.1C176.242 242.068 175.171 240.128 173.988 238.257C172.758 236.317 171.418 234.452 169.976 232.671L171.65 241.785C172.433 246.052 169.934 243.257 169.934 243.257L166.077 238.69C166.429 239.41 166.685 240.174 166.955 240.928L167.727 243.208Z" fill="black"/>
<path d="M163.737 244.062L168.354 247.133C168.052 245.853 167.741 244.576 167.419 243.301L166.806 240.977C166.586 240.208 166.381 239.431 166.079 238.689L165.586 240.731C165.313 241.855 164.782 241.897 164.587 241.871L159.024 240.678C159.734 241.342 160.547 241.873 161.335 242.433L163.737 244.062ZM177.888 244.099L178.119 253.197C178.49 252.882 178.868 252.576 179.255 252.281C180.034 251.684 180.825 251.115 181.619 250.555C183.025 249.571 184.442 248.603 185.87 247.653C186.324 246.166 186.792 244.684 187.273 243.207L188.042 240.926C188.313 240.173 188.569 239.408 188.921 238.689L185.065 243.255C185.065 243.255 182.565 246.051 183.348 241.784L185.024 232.669L185.02 232.671C183.578 234.452 182.239 236.316 181.009 238.255C179.83 240.127 178.758 242.068 177.888 244.099Z" fill="black"/>
<path d="M177.146 242.769L177.5 228.815L177.854 242.769C178.717 241.135 179.697 239.573 180.747 238.072C182.069 236.188 183.496 234.385 185.022 232.672L181.927 234.256C181.751 234.327 181.139 234.417 180.33 232.838L177.5 227.312L174.671 232.838C173.861 234.417 173.251 234.328 173.073 234.256L169.978 232.67C171.504 234.384 172.932 236.187 174.253 238.071C175.304 239.573 176.284 241.135 177.146 242.769ZM187.581 243.301C187.259 244.576 186.948 245.853 186.647 247.133L191.263 244.062L193.666 242.433C194.453 241.873 195.267 241.342 195.976 240.678L190.413 241.871C190.22 241.897 189.686 241.855 189.414 240.731L188.921 238.689C188.618 239.431 188.414 240.208 188.194 240.977L187.581 243.301ZM165.038 249.516C166.905 249.597 168.775 249.639 170.643 249.665C169.834 249.046 169.022 248.43 168.207 247.818L163.554 244.332L161.242 242.567C160.484 241.962 159.699 241.384 159.024 240.679L160.675 246.675C160.744 247.106 160.714 247.744 160.022 248.055L158.281 248.841C159.38 249.133 160.517 249.214 161.643 249.317C162.773 249.406 163.905 249.468 165.038 249.516ZM183.457 257.055C182.164 255.873 180.902 254.649 179.604 253.494C179.364 253.707 179.121 253.918 178.894 254.135C178.626 254.395 178.362 254.66 178.163 254.92L178.275 259.336C178.705 259.34 179.061 259.349 179.203 259.361L187.936 260.727C187.115 260.226 186.364 259.609 185.624 258.986C184.89 258.357 184.167 257.713 183.457 257.055Z" fill="black"/>
<path d="M193.373 249.479C192.245 249.624 191.116 249.74 189.985 249.844C187.83 250.04 185.674 250.193 183.514 250.32C183.07 250.663 182.624 251.003 182.186 251.35C181.469 251.915 180.763 252.494 180.067 253.086C181.298 254.314 182.468 255.583 183.677 256.818C184.348 257.513 185.033 258.195 185.73 258.863C186.432 259.525 187.143 260.181 187.936 260.728L187.191 258.345C186.85 257.255 187.837 256.238 188.245 255.891C190.336 254.097 196.719 248.841 196.719 248.841C195.633 249.187 194.496 249.321 193.373 249.479ZM176.107 254.135C175.88 253.918 175.637 253.708 175.397 253.494C174.098 254.649 172.837 255.873 171.544 257.055C170.833 257.713 170.11 258.356 169.376 258.985C168.636 259.608 167.887 260.226 167.064 260.727L175.797 259.361C175.941 259.347 176.296 259.34 176.726 259.335L176.838 254.919C176.638 254.66 176.374 254.395 176.107 254.135Z" fill="black"/>
<path d="M191.446 244.332L186.793 247.818C185.979 248.431 185.167 249.047 184.357 249.665C186.226 249.639 188.095 249.597 189.963 249.516C191.096 249.468 192.227 249.406 193.357 249.316C194.483 249.214 195.62 249.133 196.719 248.84L194.978 248.053C194.288 247.743 194.255 247.105 194.326 246.674L195.976 240.678C195.302 241.383 194.515 241.961 193.758 242.566L191.446 244.332ZM171.322 256.817C172.531 255.582 173.701 254.314 174.934 253.085C174.242 252.495 173.531 251.919 172.814 251.35C172.374 251.003 171.929 250.663 171.486 250.319C169.327 250.196 167.17 250.037 165.016 249.844C163.884 249.742 162.754 249.621 161.627 249.478C160.505 249.321 159.367 249.187 158.281 248.841C158.281 248.841 164.664 254.097 166.756 255.89C167.164 256.237 168.15 257.254 167.81 258.345L167.064 260.727C167.857 260.18 168.57 259.524 169.271 258.862C169.968 258.194 170.652 257.512 171.322 256.817ZM176.726 259.336L176.539 266.688H178.461L178.275 259.336C177.79 259.33 177.211 259.33 176.726 259.336Z" fill="black"/>
<path fill-rule="evenodd" clip-rule="evenodd" d="M174 329.417C185.65 317.555 214.778 338.311 174 365C133.222 338.314 162.35 317.555 174 329.417Z" fill="black"/>
<path d="M196.895 439.142C197.354 438.792 197.695 438.303 197.87 437.745C198.044 437.187 198.043 436.587 197.867 436.029C197.692 435.471 197.349 434.984 196.889 434.635C196.428 434.286 195.872 434.093 195.299 434.084L184.167 433.654C184.112 433.65 184.06 433.63 184.016 433.597C183.972 433.563 183.938 433.517 183.919 433.464L180.073 422.843C179.879 422.303 179.528 421.836 179.067 421.506C178.606 421.177 178.057 421 177.494 421C176.931 421 176.382 421.177 175.92 421.506C175.459 421.836 175.108 422.303 174.915 422.843L171.081 433.502C171.062 433.555 171.028 433.601 170.984 433.634C170.94 433.668 170.888 433.688 170.833 433.692L159.701 434.122C159.128 434.131 158.572 434.324 158.111 434.673C157.651 435.022 157.308 435.509 157.133 436.067C156.957 436.625 156.956 437.225 157.13 437.783C157.305 438.341 157.646 438.829 158.105 439.18L166.838 446.197C166.882 446.232 166.914 446.28 166.932 446.334C166.949 446.388 166.951 446.446 166.937 446.501L163.931 457.387C163.775 457.942 163.791 458.532 163.974 459.077C164.158 459.622 164.502 460.096 164.959 460.435C165.416 460.773 165.964 460.96 166.528 460.969C167.092 460.978 167.645 460.809 168.112 460.485L177.339 454.163C177.385 454.131 177.439 454.114 177.494 454.114C177.549 454.114 177.603 454.131 177.648 454.163L186.876 460.485C187.336 460.82 187.887 461 188.453 461C189.018 461 189.569 460.82 190.03 460.485C190.487 460.15 190.831 459.678 191.015 459.135C191.198 458.591 191.213 458.003 191.056 457.451L188.026 446.526C188.01 446.471 188.011 446.412 188.029 446.358C188.046 446.304 188.08 446.256 188.125 446.222L196.895 439.142Z" fill="black"/>
<path d="M245.305 62.3125V64H239.586V62.3125H245.305ZM240.234 52.625V64H238.086V52.625H240.234ZM255.438 58.0234V58.6094C255.438 59.4688 255.323 60.2422 255.094 60.9297C254.865 61.612 254.539 62.1927 254.117 62.6719C253.695 63.151 253.193 63.5182 252.609 63.7734C252.026 64.0286 251.378 64.1562 250.664 64.1562C249.961 64.1562 249.315 64.0286 248.727 63.7734C248.143 63.5182 247.638 63.151 247.211 62.6719C246.784 62.1927 246.453 61.612 246.219 60.9297C245.984 60.2422 245.867 59.4688 245.867 58.6094V58.0234C245.867 57.1589 245.984 56.3854 246.219 55.7031C246.453 55.0208 246.781 54.4401 247.203 53.9609C247.625 53.4766 248.128 53.1068 248.711 52.8516C249.299 52.5964 249.945 52.4688 250.648 52.4688C251.362 52.4688 252.01 52.5964 252.594 52.8516C253.177 53.1068 253.68 53.4766 254.102 53.9609C254.529 54.4401 254.857 55.0208 255.086 55.7031C255.32 56.3854 255.438 57.1589 255.438 58.0234ZM253.266 58.6094V58.0078C253.266 57.388 253.208 56.8438 253.094 56.375C252.979 55.901 252.81 55.5026 252.586 55.1797C252.362 54.8568 252.086 54.6146 251.758 54.4531C251.43 54.2865 251.06 54.2031 250.648 54.2031C250.232 54.2031 249.862 54.2865 249.539 54.4531C249.221 54.6146 248.951 54.8568 248.727 55.1797C248.503 55.5026 248.331 55.901 248.211 56.375C248.096 56.8438 248.039 57.388 248.039 58.0078V58.6094C248.039 59.224 248.096 59.7682 248.211 60.2422C248.331 60.7161 248.503 61.1172 248.727 61.4453C248.956 61.7682 249.232 62.013 249.555 62.1797C249.878 62.3464 250.247 62.4297 250.664 62.4297C251.081 62.4297 251.451 62.3464 251.773 62.1797C252.096 62.013 252.367 61.7682 252.586 61.4453C252.81 61.1172 252.979 60.7161 253.094 60.2422C253.208 59.7682 253.266 59.224 253.266 58.6094ZM263.914 60.2578H266.062C266.005 61.0182 265.794 61.6927 265.43 62.2812C265.065 62.8646 264.557 63.3229 263.906 63.6562C263.255 63.9896 262.466 64.1562 261.539 64.1562C260.826 64.1562 260.182 64.0312 259.609 63.7812C259.042 63.526 258.555 63.1641 258.148 62.6953C257.747 62.2214 257.44 61.6536 257.227 60.9922C257.013 60.3255 256.906 59.5781 256.906 58.75V57.8828C256.906 57.0547 257.016 56.3073 257.234 55.6406C257.453 54.974 257.766 54.4062 258.172 53.9375C258.583 53.4635 259.076 53.099 259.648 52.8438C260.227 52.5885 260.872 52.4609 261.586 52.4609C262.513 52.4609 263.297 52.6328 263.938 52.9766C264.578 53.3151 265.076 53.7812 265.43 54.375C265.784 54.9688 265.997 55.651 266.07 56.4219H263.922C263.88 55.9427 263.776 55.5365 263.609 55.2031C263.448 54.8698 263.203 54.6172 262.875 54.4453C262.552 54.2682 262.122 54.1797 261.586 54.1797C261.169 54.1797 260.802 54.2578 260.484 54.4141C260.172 54.5703 259.911 54.8047 259.703 55.1172C259.495 55.4245 259.339 55.8099 259.234 56.2734C259.13 56.7318 259.078 57.263 259.078 57.8672V58.75C259.078 59.3281 259.125 59.8464 259.219 60.3047C259.312 60.763 259.458 61.151 259.656 61.4688C259.854 61.7865 260.109 62.0286 260.422 62.1953C260.734 62.362 261.107 62.4453 261.539 62.4453C262.065 62.4453 262.492 62.362 262.82 62.1953C263.154 62.0286 263.406 61.7839 263.578 61.4609C263.755 61.138 263.867 60.737 263.914 60.2578ZM272.25 54.3516L269.008 64H266.734L270.984 52.625H272.438L272.25 54.3516ZM274.961 64L271.703 54.3516L271.508 52.625H272.969L277.242 64H274.961ZM274.812 59.7734V61.4688H268.711V59.7734H274.812ZM282.312 52.625V64H280.172V52.625H282.312ZM285.844 52.625V54.3203H276.68V52.625H285.844ZM289.562 52.625V64H287.414V52.625H289.562ZM301.094 58.0234V58.6094C301.094 59.4688 300.979 60.2422 300.75 60.9297C300.521 61.612 300.195 62.1927 299.773 62.6719C299.352 63.151 298.849 63.5182 298.266 63.7734C297.682 64.0286 297.034 64.1562 296.32 64.1562C295.617 64.1562 294.971 64.0286 294.383 63.7734C293.799 63.5182 293.294 63.151 292.867 62.6719C292.44 62.1927 292.109 61.612 291.875 60.9297C291.641 60.2422 291.523 59.4688 291.523 58.6094V58.0234C291.523 57.1589 291.641 56.3854 291.875 55.7031C292.109 55.0208 292.438 54.4401 292.859 53.9609C293.281 53.4766 293.784 53.1068 294.367 52.8516C294.956 52.5964 295.602 52.4688 296.305 52.4688C297.018 52.4688 297.667 52.5964 298.25 52.8516C298.833 53.1068 299.336 53.4766 299.758 53.9609C300.185 54.4401 300.513 55.0208 300.742 55.7031C300.977 56.3854 301.094 57.1589 301.094 58.0234ZM298.922 58.6094V58.0078C298.922 57.388 298.865 56.8438 298.75 56.375C298.635 55.901 298.466 55.5026 298.242 55.1797C298.018 54.8568 297.742 54.6146 297.414 54.4531C297.086 54.2865 296.716 54.2031 296.305 54.2031C295.888 54.2031 295.518 54.2865 295.195 54.4531C294.878 54.6146 294.607 54.8568 294.383 55.1797C294.159 55.5026 293.987 55.901 293.867 56.375C293.753 56.8438 293.695 57.388 293.695 58.0078V58.6094C293.695 59.224 293.753 59.7682 293.867 60.2422C293.987 60.7161 294.159 61.1172 294.383 61.4453C294.612 61.7682 294.888 62.013 295.211 62.1797C295.534 62.3464 295.904 62.4297 296.32 62.4297C296.737 62.4297 297.107 62.3464 297.43 62.1797C297.753 62.013 298.023 61.7682 298.242 61.4453C298.466 61.1172 298.635 60.7161 298.75 60.2422C298.865 59.7682 298.922 59.224 298.922 58.6094ZM312.055 52.625V64H309.898L305.062 56.1094V64H302.914V52.625H305.062L309.914 60.5234V52.625H312.055Z" fill="black"/>
<path d="M24.7422 156.258H26.8906C26.8333 157.018 26.6224 157.693 26.2578 158.281C25.8932 158.865 25.3854 159.323 24.7344 159.656C24.0833 159.99 23.2943 160.156 22.3672 160.156C21.6536 160.156 21.0104 160.031 20.4375 159.781C19.8698 159.526 19.3828 159.164 18.9766 158.695C18.5755 158.221 18.2682 157.654 18.0547 156.992C17.8411 156.326 17.7344 155.578 17.7344 154.75V153.883C17.7344 153.055 17.8438 152.307 18.0625 151.641C18.2812 150.974 18.5938 150.406 19 149.938C19.4115 149.464 19.9036 149.099 20.4766 148.844C21.0547 148.589 21.7005 148.461 22.4141 148.461C23.3411 148.461 24.125 148.633 24.7656 148.977C25.4062 149.315 25.9036 149.781 26.2578 150.375C26.612 150.969 26.8255 151.651 26.8984 152.422H24.75C24.7083 151.943 24.6042 151.536 24.4375 151.203C24.276 150.87 24.0312 150.617 23.7031 150.445C23.3802 150.268 22.9505 150.18 22.4141 150.18C21.9974 150.18 21.6302 150.258 21.3125 150.414C21 150.57 20.7396 150.805 20.5312 151.117C20.3229 151.424 20.1667 151.81 20.0625 152.273C19.9583 152.732 19.9062 153.263 19.9062 153.867V154.75C19.9062 155.328 19.9531 155.846 20.0469 156.305C20.1406 156.763 20.2865 157.151 20.4844 157.469C20.6823 157.786 20.9375 158.029 21.25 158.195C21.5625 158.362 21.9349 158.445 22.3672 158.445C22.8932 158.445 23.3203 158.362 23.6484 158.195C23.9818 158.029 24.2344 157.784 24.4062 157.461C24.5833 157.138 24.6953 156.737 24.7422 156.258ZM37.7656 154.023V154.609C37.7656 155.469 37.651 156.242 37.4219 156.93C37.1927 157.612 36.8672 158.193 36.4453 158.672C36.0234 159.151 35.5208 159.518 34.9375 159.773C34.3542 160.029 33.7057 160.156 32.9922 160.156C32.2891 160.156 31.6432 160.029 31.0547 159.773C30.4714 159.518 29.9661 159.151 29.5391 158.672C29.112 158.193 28.7812 157.612 28.5469 156.93C28.3125 156.242 28.1953 155.469 28.1953 154.609V154.023C28.1953 153.159 28.3125 152.385 28.5469 151.703C28.7812 151.021 29.1094 150.44 29.5312 149.961C29.9531 149.477 30.4557 149.107 31.0391 148.852C31.6276 148.596 32.2734 148.469 32.9766 148.469C33.6901 148.469 34.3385 148.596 34.9219 148.852C35.5052 149.107 36.0078 149.477 36.4297 149.961C36.8568 150.44 37.1849 151.021 37.4141 151.703C37.6484 152.385 37.7656 153.159 37.7656 154.023ZM35.5938 154.609V154.008C35.5938 153.388 35.5365 152.844 35.4219 152.375C35.3073 151.901 35.138 151.503 34.9141 151.18C34.6901 150.857 34.4141 150.615 34.0859 150.453C33.7578 150.286 33.388 150.203 32.9766 150.203C32.5599 150.203 32.1901 150.286 31.8672 150.453C31.5495 150.615 31.2786 150.857 31.0547 151.18C30.8307 151.503 30.6589 151.901 30.5391 152.375C30.4245 152.844 30.3672 153.388 30.3672 154.008V154.609C30.3672 155.224 30.4245 155.768 30.5391 156.242C30.6589 156.716 30.8307 157.117 31.0547 157.445C31.2839 157.768 31.5599 158.013 31.8828 158.18C32.2057 158.346 32.5755 158.43 32.9922 158.43C33.4089 158.43 33.7786 158.346 34.1016 158.18C34.4245 158.013 34.6953 157.768 34.9141 157.445C35.138 157.117 35.3073 156.716 35.4219 156.242C35.5365 155.768 35.5938 155.224 35.5938 154.609ZM40.5234 148.625H42.3828L45.4922 157.188L48.5938 148.625H50.4609L46.2344 160H44.7422L40.5234 148.625ZM39.5859 148.625H41.4062L41.7344 156.492V160H39.5859V148.625ZM49.5703 148.625H51.3984V160H49.25V156.492L49.5703 148.625ZM54.5234 148.625H56.3828L59.4922 157.188L62.5938 148.625H64.4609L60.2344 160H58.7422L54.5234 148.625ZM53.5859 148.625H55.4062L55.7344 156.492V160H53.5859V148.625ZM63.5703 148.625H65.3984V160H63.25V156.492L63.5703 148.625ZM73.9141 148.625H76.0625V156.18C76.0625 157.049 75.875 157.781 75.5 158.375C75.125 158.964 74.6146 159.409 73.9688 159.711C73.3229 160.008 72.5885 160.156 71.7656 160.156C70.9323 160.156 70.1901 160.008 69.5391 159.711C68.888 159.409 68.3776 158.964 68.0078 158.375C67.638 157.781 67.4531 157.049 67.4531 156.18V148.625H69.6016V156.18C69.6016 156.711 69.6901 157.146 69.8672 157.484C70.0443 157.818 70.2943 158.065 70.6172 158.227C70.9401 158.388 71.3229 158.469 71.7656 158.469C72.2135 158.469 72.5964 158.388 72.9141 158.227C73.237 158.065 73.4844 157.818 73.6562 157.484C73.8281 157.146 73.9141 156.711 73.9141 156.18V148.625ZM87.2422 148.625V160H85.0859L80.25 152.109V160H78.1016V148.625H80.25L85.1016 156.523V148.625H87.2422ZM91.7188 148.625V160H89.5703V148.625H91.7188ZM98.6875 148.625V160H96.5469V148.625H98.6875ZM102.219 148.625V150.32H93.0547V148.625H102.219ZM105.102 148.625L107.602 153.93L110.117 148.625H112.477L108.695 155.836V160H106.516V155.836L102.727 148.625H105.102Z" fill="black"/>
<path d="M251.648 253.312V255H245.602V253.312H251.648ZM246.258 243.625V255H244.109V243.625H246.258ZM250.859 248.32V249.969H245.602V248.32H250.859ZM251.625 243.625V245.32H245.602V243.625H251.625ZM256.539 255H254.086L254.102 253.312H256.539C257.201 253.312 257.755 253.167 258.203 252.875C258.651 252.578 258.99 252.154 259.219 251.602C259.448 251.044 259.562 250.378 259.562 249.602V249.016C259.562 248.417 259.497 247.888 259.367 247.43C259.237 246.971 259.044 246.586 258.789 246.273C258.539 245.961 258.229 245.724 257.859 245.562C257.49 245.401 257.065 245.32 256.586 245.32H254.039V243.625H256.586C257.346 243.625 258.039 243.753 258.664 244.008C259.294 244.263 259.839 244.63 260.297 245.109C260.76 245.583 261.115 246.151 261.359 246.812C261.609 247.474 261.734 248.214 261.734 249.031V249.602C261.734 250.414 261.609 251.154 261.359 251.82C261.115 252.482 260.76 253.049 260.297 253.523C259.839 253.997 259.292 254.362 258.656 254.617C258.021 254.872 257.315 255 256.539 255ZM255.289 243.625V255H253.141V243.625H255.289ZM269.891 243.625H272.039V251.18C272.039 252.049 271.852 252.781 271.477 253.375C271.102 253.964 270.591 254.409 269.945 254.711C269.299 255.008 268.565 255.156 267.742 255.156C266.909 255.156 266.167 255.008 265.516 254.711C264.865 254.409 264.354 253.964 263.984 253.375C263.615 252.781 263.43 252.049 263.43 251.18V243.625H265.578V251.18C265.578 251.711 265.667 252.146 265.844 252.484C266.021 252.818 266.271 253.065 266.594 253.227C266.917 253.388 267.299 253.469 267.742 253.469C268.19 253.469 268.573 253.388 268.891 253.227C269.214 253.065 269.461 252.818 269.633 252.484C269.805 252.146 269.891 251.711 269.891 251.18V243.625ZM280.734 251.258H282.883C282.826 252.018 282.615 252.693 282.25 253.281C281.885 253.865 281.378 254.323 280.727 254.656C280.076 254.99 279.286 255.156 278.359 255.156C277.646 255.156 277.003 255.031 276.43 254.781C275.862 254.526 275.375 254.164 274.969 253.695C274.568 253.221 274.26 252.654 274.047 251.992C273.833 251.326 273.727 250.578 273.727 249.75V248.883C273.727 248.055 273.836 247.307 274.055 246.641C274.273 245.974 274.586 245.406 274.992 244.938C275.404 244.464 275.896 244.099 276.469 243.844C277.047 243.589 277.693 243.461 278.406 243.461C279.333 243.461 280.117 243.633 280.758 243.977C281.398 244.315 281.896 244.781 282.25 245.375C282.604 245.969 282.818 246.651 282.891 247.422H280.742C280.701 246.943 280.596 246.536 280.43 246.203C280.268 245.87 280.023 245.617 279.695 245.445C279.372 245.268 278.943 245.18 278.406 245.18C277.99 245.18 277.622 245.258 277.305 245.414C276.992 245.57 276.732 245.805 276.523 246.117C276.315 246.424 276.159 246.81 276.055 247.273C275.951 247.732 275.898 248.263 275.898 248.867V249.75C275.898 250.328 275.945 250.846 276.039 251.305C276.133 251.763 276.279 252.151 276.477 252.469C276.674 252.786 276.93 253.029 277.242 253.195C277.555 253.362 277.927 253.445 278.359 253.445C278.885 253.445 279.312 253.362 279.641 253.195C279.974 253.029 280.227 252.784 280.398 252.461C280.576 252.138 280.688 251.737 280.734 251.258ZM289.07 245.352L285.828 255H283.555L287.805 243.625H289.258L289.07 245.352ZM291.781 255L288.523 245.352L288.328 243.625H289.789L294.062 255H291.781ZM291.633 250.773V252.469H285.531V250.773H291.633ZM299.133 243.625V255H296.992V243.625H299.133ZM302.664 243.625V245.32H293.5V243.625H302.664ZM306.383 243.625V255H304.234V243.625H306.383ZM317.914 249.023V249.609C317.914 250.469 317.799 251.242 317.57 251.93C317.341 252.612 317.016 253.193 316.594 253.672C316.172 254.151 315.669 254.518 315.086 254.773C314.503 255.029 313.854 255.156 313.141 255.156C312.438 255.156 311.792 255.029 311.203 254.773C310.62 254.518 310.115 254.151 309.688 253.672C309.26 253.193 308.93 252.612 308.695 251.93C308.461 251.242 308.344 250.469 308.344 249.609V249.023C308.344 248.159 308.461 247.385 308.695 246.703C308.93 246.021 309.258 245.44 309.68 244.961C310.102 244.477 310.604 244.107 311.188 243.852C311.776 243.596 312.422 243.469 313.125 243.469C313.839 243.469 314.487 243.596 315.07 243.852C315.654 244.107 316.156 244.477 316.578 244.961C317.005 245.44 317.333 246.021 317.562 246.703C317.797 247.385 317.914 248.159 317.914 249.023ZM315.742 249.609V249.008C315.742 248.388 315.685 247.844 315.57 247.375C315.456 246.901 315.286 246.503 315.062 246.18C314.839 245.857 314.562 245.615 314.234 245.453C313.906 245.286 313.536 245.203 313.125 245.203C312.708 245.203 312.339 245.286 312.016 245.453C311.698 245.615 311.427 245.857 311.203 246.18C310.979 246.503 310.807 246.901 310.688 247.375C310.573 247.844 310.516 248.388 310.516 249.008V249.609C310.516 250.224 310.573 250.768 310.688 251.242C310.807 251.716 310.979 252.117 311.203 252.445C311.432 252.768 311.708 253.013 312.031 253.18C312.354 253.346 312.724 253.43 313.141 253.43C313.557 253.43 313.927 253.346 314.25 253.18C314.573 253.013 314.844 252.768 315.062 252.445C315.286 252.117 315.456 251.716 315.57 251.242C315.685 250.768 315.742 250.224 315.742 249.609ZM328.875 243.625V255H326.719L321.883 247.109V255H319.734V243.625H321.883L326.734 251.523V243.625H328.875Z" fill="black"/>
<path d="M254.445 443.93H251.539L251.523 442.414H254.016C254.443 442.414 254.799 442.354 255.086 442.234C255.372 442.115 255.589 441.94 255.734 441.711C255.885 441.482 255.961 441.203 255.961 440.875C255.961 440.51 255.891 440.214 255.75 439.984C255.615 439.755 255.401 439.589 255.109 439.484C254.818 439.375 254.448 439.32 254 439.32H252.234V449H250.086V437.625H254C254.646 437.625 255.221 437.688 255.727 437.812C256.237 437.932 256.669 438.12 257.023 438.375C257.378 438.63 257.646 438.951 257.828 439.336C258.016 439.721 258.109 440.18 258.109 440.711C258.109 441.18 258 441.612 257.781 442.008C257.568 442.398 257.237 442.716 256.789 442.961C256.346 443.206 255.784 443.346 255.102 443.383L254.445 443.93ZM254.352 449H250.906L251.805 447.312H254.352C254.779 447.312 255.13 447.242 255.406 447.102C255.688 446.961 255.896 446.768 256.031 446.523C256.172 446.273 256.242 445.987 256.242 445.664C256.242 445.31 256.18 445.003 256.055 444.742C255.935 444.482 255.742 444.281 255.477 444.141C255.216 444 254.872 443.93 254.445 443.93H252.211L252.227 442.414H255.07L255.562 443C256.219 443.005 256.753 443.135 257.164 443.391C257.581 443.646 257.888 443.974 258.086 444.375C258.284 444.776 258.383 445.208 258.383 445.672C258.383 446.401 258.224 447.013 257.906 447.508C257.594 448.003 257.135 448.375 256.531 448.625C255.932 448.875 255.206 449 254.352 449ZM267.781 447.312V449H261.734V447.312H267.781ZM262.391 437.625V449H260.242V437.625H262.391ZM266.992 442.32V443.969H261.734V442.32H266.992ZM267.758 437.625V439.32H261.734V437.625H267.758ZM280.805 442.32V444.008H274.82V442.32H280.805ZM275.406 437.625V449H273.258V437.625H275.406ZM282.398 437.625V449H280.25V437.625H282.398ZM289.25 439.352L286.008 449H283.734L287.984 437.625H289.438L289.25 439.352ZM291.961 449L288.703 439.352L288.508 437.625H289.969L294.242 449H291.961ZM291.812 444.773V446.469H285.711V444.773H291.812ZM299.789 444.852H296.859V443.164H299.789C300.268 443.164 300.656 443.086 300.953 442.93C301.255 442.768 301.477 442.549 301.617 442.273C301.758 441.992 301.828 441.672 301.828 441.312C301.828 440.964 301.758 440.638 301.617 440.336C301.477 440.034 301.255 439.789 300.953 439.602C300.656 439.414 300.268 439.32 299.789 439.32H297.562V449H295.414V437.625H299.789C300.674 437.625 301.43 437.784 302.055 438.102C302.685 438.414 303.164 438.849 303.492 439.406C303.826 439.958 303.992 440.589 303.992 441.297C303.992 442.031 303.826 442.664 303.492 443.195C303.164 443.727 302.685 444.135 302.055 444.422C301.43 444.708 300.674 444.852 299.789 444.852ZM310.055 444.852H307.125V443.164H310.055C310.534 443.164 310.922 443.086 311.219 442.93C311.521 442.768 311.742 442.549 311.883 442.273C312.023 441.992 312.094 441.672 312.094 441.312C312.094 440.964 312.023 440.638 311.883 440.336C311.742 440.034 311.521 439.789 311.219 439.602C310.922 439.414 310.534 439.32 310.055 439.32H307.828V449H305.68V437.625H310.055C310.94 437.625 311.695 437.784 312.32 438.102C312.951 438.414 313.43 438.849 313.758 439.406C314.091 439.958 314.258 440.589 314.258 441.297C314.258 442.031 314.091 442.664 313.758 443.195C313.43 443.727 312.951 444.135 312.32 444.422C311.695 444.708 310.94 444.852 310.055 444.852ZM317.273 437.625L319.773 442.93L322.289 437.625H324.648L320.867 444.836V449H318.688V444.836L314.898 437.625H317.273Z" fill="black"/>
<path d="M21.7422 352.258H23.8906C23.8333 353.018 23.6224 353.693 23.2578 354.281C22.8932 354.865 22.3854 355.323 21.7344 355.656C21.0833 355.99 20.2943 356.156 19.3672 356.156C18.6536 356.156 18.0104 356.031 17.4375 355.781C16.8698 355.526 16.3828 355.164 15.9766 354.695C15.5755 354.221 15.2682 353.654 15.0547 352.992C14.8411 352.326 14.7344 351.578 14.7344 350.75V349.883C14.7344 349.055 14.8438 348.307 15.0625 347.641C15.2812 346.974 15.5938 346.406 16 345.938C16.4115 345.464 16.9036 345.099 17.4766 344.844C18.0547 344.589 18.7005 344.461 19.4141 344.461C20.3411 344.461 21.125 344.633 21.7656 344.977C22.4062 345.315 22.9036 345.781 23.2578 346.375C23.612 346.969 23.8255 347.651 23.8984 348.422H21.75C21.7083 347.943 21.6042 347.536 21.4375 347.203C21.276 346.87 21.0312 346.617 20.7031 346.445C20.3802 346.268 19.9505 346.18 19.4141 346.18C18.9974 346.18 18.6302 346.258 18.3125 346.414C18 346.57 17.7396 346.805 17.5312 347.117C17.3229 347.424 17.1667 347.81 17.0625 348.273C16.9583 348.732 16.9062 349.263 16.9062 349.867V350.75C16.9062 351.328 16.9531 351.846 17.0469 352.305C17.1406 352.763 17.2865 353.151 17.4844 353.469C17.6823 353.786 17.9375 354.029 18.25 354.195C18.5625 354.362 18.9349 354.445 19.3672 354.445C19.8932 354.445 20.3203 354.362 20.6484 354.195C20.9818 354.029 21.2344 353.784 21.4062 353.461C21.5833 353.138 21.6953 352.737 21.7422 352.258ZM33.1016 349.32V351.008H27.1172V349.32H33.1016ZM27.7031 344.625V356H25.5547V344.625H27.7031ZM34.6953 344.625V356H32.5469V344.625H34.6953ZM41.5469 346.352L38.3047 356H36.0312L40.2812 344.625H41.7344L41.5469 346.352ZM44.2578 356L41 346.352L40.8047 344.625H42.2656L46.5391 356H44.2578ZM44.1094 351.773V353.469H38.0078V351.773H44.1094ZM56.8516 344.625V356H54.6953L49.8594 348.109V356H47.7109V344.625H49.8594L54.7109 352.523V344.625H56.8516ZM67.9141 350.117V354.547C67.7474 354.76 67.4844 354.992 67.125 355.242C66.7708 355.492 66.3073 355.708 65.7344 355.891C65.1615 356.068 64.4583 356.156 63.625 356.156C62.901 356.156 62.2396 356.036 61.6406 355.797C61.0417 355.552 60.526 355.195 60.0938 354.727C59.6615 354.258 59.3281 353.685 59.0938 353.008C58.8594 352.331 58.7422 351.557 58.7422 350.688V349.938C58.7422 349.068 58.8516 348.294 59.0703 347.617C59.2943 346.94 59.612 346.367 60.0234 345.898C60.4401 345.43 60.9375 345.073 61.5156 344.828C62.099 344.583 62.75 344.461 63.4688 344.461C64.4323 344.461 65.224 344.62 65.8438 344.938C66.4688 345.255 66.9479 345.693 67.2812 346.25C67.6146 346.802 67.8229 347.438 67.9062 348.156H65.8125C65.7552 347.76 65.6406 347.414 65.4688 347.117C65.2969 346.815 65.0521 346.581 64.7344 346.414C64.4219 346.242 64.0156 346.156 63.5156 346.156C63.0938 346.156 62.7214 346.24 62.3984 346.406C62.0755 346.573 61.8047 346.815 61.5859 347.133C61.3672 347.451 61.2005 347.844 61.0859 348.312C60.9766 348.781 60.9219 349.318 60.9219 349.922V350.688C60.9219 351.297 60.9844 351.839 61.1094 352.312C61.2344 352.781 61.4141 353.177 61.6484 353.5C61.888 353.818 62.1823 354.06 62.5312 354.227C62.8854 354.388 63.2865 354.469 63.7344 354.469C64.1406 354.469 64.4766 354.435 64.7422 354.367C65.013 354.294 65.2292 354.208 65.3906 354.109C65.5521 354.01 65.6771 353.914 65.7656 353.82V351.688H63.5078V350.117H67.9141ZM77.4844 354.312V356H71.4375V354.312H77.4844ZM72.0938 344.625V356H69.9453V344.625H72.0938ZM76.6953 349.32V350.969H71.4375V349.32H76.6953ZM77.4609 344.625V346.32H71.4375V344.625H77.4609ZM83.8984 344.625H85.7578L88.8672 353.188L91.9688 344.625H93.8359L89.6094 356H88.1172L83.8984 344.625ZM82.9609 344.625H84.7812L85.1094 352.492V356H82.9609V344.625ZM92.9453 344.625H94.7734V356H92.625V352.492L92.9453 344.625ZM99.25 344.625V356H97.1016V344.625H99.25ZM110.711 344.625V356H108.555L103.719 348.109V356H101.57V344.625H103.719L108.57 352.523V344.625H110.711ZM116.297 356H113.844L113.859 354.312H116.297C116.958 354.312 117.513 354.167 117.961 353.875C118.409 353.578 118.747 353.154 118.977 352.602C119.206 352.044 119.32 351.378 119.32 350.602V350.016C119.32 349.417 119.255 348.888 119.125 348.43C118.995 347.971 118.802 347.586 118.547 347.273C118.297 346.961 117.987 346.724 117.617 346.562C117.247 346.401 116.823 346.32 116.344 346.32H113.797V344.625H116.344C117.104 344.625 117.797 344.753 118.422 345.008C119.052 345.263 119.596 345.63 120.055 346.109C120.518 346.583 120.872 347.151 121.117 347.812C121.367 348.474 121.492 349.214 121.492 350.031V350.602C121.492 351.414 121.367 352.154 121.117 352.82C120.872 353.482 120.518 354.049 120.055 354.523C119.596 354.997 119.049 355.362 118.414 355.617C117.779 355.872 117.073 356 116.297 356ZM115.047 344.625V356H112.898V344.625H115.047Z" fill="black"/>
<path d="M175 32.9999C167.26 32.9999 161 39.2599 161 46.9999C161 50.4799 162 53.7399 163.82 56.6799C165.72 59.7599 168.22 62.3999 170.14 65.4799C171.08 66.9799 171.76 68.3799 172.48 69.9999C173 71.0999 173.42 72.9999 175 72.9999C176.58 72.9999 177 71.0999 177.5 69.9999C178.24 68.3799 178.9 66.9799 179.84 65.4799C181.76 62.4199 184.26 59.7799 186.16 56.6799C188 53.7399 189 50.4799 189 46.9999C189 39.2599 182.74 32.9999 175 32.9999ZM175 52.4999C172.24 52.4999 170 50.2599 170 47.4999C170 44.7399 172.24 42.4999 175 42.4999C177.76 42.4999 180 44.7399 180 47.4999C180 50.2599 177.76 52.4999 175 52.4999Z" fill="black"/>
<defs>
<filter id="filter0_ii_50_102" x="129.031" y="6.72498" width="92.6377" height="92.6377" filterUnits="userSpaceOnUse" color-interpolation-filters="sRGB">
<feFlood flood-opacity="0" result="BackgroundImageFix"/>
<feBlend mode="normal" in="SourceGraphic" in2="BackgroundImageFix" result="shape"/>
<feColorMatrix in="SourceAlpha" type="matrix" values="0 0 0 0 0 0 0 0 0 0 0 0 0 0 0 0 0 0 127 0" result="hardAlpha"/>
<feOffset dx="2.5" dy="2.5"/>
<feGaussianBlur stdDeviation="2.5"/>
<feComposite in2="hardAlpha" operator="arithmetic" k2="-1" k3="1"/>
<feColorMatrix type="matrix" values="0 0 0 0 0.65098 0 0 0 0 0.670588 0 0 0 0 0.741176 0 0 0 1 0"/>
<feBlend mode="normal" in2="shape" result="effect1_innerShadow_50_102"/>
<feColorMatrix in="SourceAlpha" type="matrix" values="0 0 0 0 0 0 0 0 0 0 0 0 0 0 0 0 0 0 127 0" result="hardAlpha"/>
<feOffset dx="-2.5" dy="-2.5"/>
<feGaussianBlur stdDeviation="2.5"/>
<feComposite in2="hardAlpha" operator="arithmetic" k2="-1" k3="1"/>
<feColorMatrix type="matrix" values="0 0 0 0 0.980392 0 0 0 0 0.984314 0 0 0 0 1 0 0 0 1 0"/>
<feBlend mode="normal" in2="effect1_innerShadow_50_102" result="effect2_innerShadow_50_102"/>
</filter>
<filter id="filter1_ii_50_102" x="130.415" y="103.588" width="92.6377" height="92.6377" filterUnits="userSpaceOnUse" color-interpolation-filters="sRGB">
<feFlood flood-opacity="0" result="BackgroundImageFix"/>
<feBlend mode="normal" in="SourceGraphic" in2="BackgroundImageFix" result="shape"/>
<feColorMatrix in="SourceAlpha" type="matrix" values="0 0 0 0 0 0 0 0 0 0 0 0 0 0 0 0 0 0 127 0" result="hardAlpha"/>
<feOffset dx="2.5" dy="2.5"/>
<feGaussianBlur stdDeviation="2.5"/>
<feComposite in2="hardAlpha" operator="arithmetic" k2="-1" k3="1"/>
<feColorMatrix type="matrix" values="0 0 0 0 0.65098 0 0 0 0 0.670588 0 0 0 0 0.741176 0 0 0 1 0"/>
<feBlend mode="normal" in2="shape" result="effect1_innerShadow_50_102"/>
<feColorMatrix in="SourceAlpha" type="matrix" values="0 0 0 0 0 0 0 0 0 0 0 0 0 0 0 0 0 0 127 0" result="hardAlpha"/>
<feOffset dx="-2.5" dy="-2.5"/>
<feGaussianBlur stdDeviation="2.5"/>
<feComposite in2="hardAlpha" operator="arithmetic" k2="-1" k3="1"/>
<feColorMatrix type="matrix" values="0 0 0 0 0.980392 0 0 0 0 0.984314 0 0 0 0 1 0 0 0 1 0"/>
<feBlend mode="normal" in2="effect1_innerShadow_50_102" result="effect2_innerShadow_50_102"/>
</filter>
<filter id="filter2_ii_50_102" x="130.415" y="200.45" width="93.5602" height="93.5602" filterUnits="userSpaceOnUse" color-interpolation-filters="sRGB">
<feFlood flood-opacity="0" result="BackgroundImageFix"/>
<feBlend mode="normal" in="SourceGraphic" in2="BackgroundImageFix" result="shape"/>
<feColorMatrix in="SourceAlpha" type="matrix" values="0 0 0 0 0 0 0 0 0 0 0 0 0 0 0 0 0 0 127 0" result="hardAlpha"/>
<feOffset dx="2.5" dy="2.5"/>
<feGaussianBlur stdDeviation="2.5"/>
<feComposite in2="hardAlpha" operator="arithmetic" k2="-1" k3="1"/>
<feColorMatrix type="matrix" values="0 0 0 0 0.65098 0 0 0 0 0.670588 0 0 0 0 0.741176 0 0 0 1 0"/>
<feBlend mode="normal" in2="shape" result="effect1_innerShadow_50_102"/>
<feColorMatrix in="SourceAlpha" type="matrix" values="0 0 0 0 0 0 0 0 0 0 0 0 0 0 0 0 0 0 127 0" result="hardAlpha"/>
<feOffset dx="-2.5" dy="-2.5"/>
<feGaussianBlur stdDeviation="2.5"/>
<feComposite in2="hardAlpha" operator="arithmetic" k2="-1" k3="1"/>
<feColorMatrix type="matrix" values="0 0 0 0 0.980392 0 0 0 0 0.984314 0 0 0 0 1 0 0 0 1 0"/>
<feBlend mode="normal" in2="effect1_innerShadow_50_102" result="effect2_innerShadow_50_102"/>
</filter>
<filter id="filter3_ii_50_102" x="130.415" y="297.313" width="93.5602" height="93.5602" filterUnits="userSpaceOnUse" color-interpolation-filters="sRGB">
<feFlood flood-opacity="0" result="BackgroundImageFix"/>
<feBlend mode="normal" in="SourceGraphic" in2="BackgroundImageFix" result="shape"/>
<feColorMatrix in="SourceAlpha" type="matrix" values="0 0 0 0 0 0 0 0 0 0 0 0 0 0 0 0 0 0 127 0" result="hardAlpha"/>
<feOffset dx="2.5" dy="2.5"/>
<feGaussianBlur stdDeviation="2.5"/>
<feComposite in2="hardAlpha" operator="arithmetic" k2="-1" k3="1"/>
<feColorMatrix type="matrix" values="0 0 0 0 0.65098 0 0 0 0 0.670588 0 0 0 0 0.741176 0 0 0 1 0"/>
<feBlend mode="normal" in2="shape" result="effect1_innerShadow_50_102"/>
<feColorMatrix in="SourceAlpha" type="matrix" values="0 0 0 0 0 0 0 0 0 0 0 0 0 0 0 0 0 0 127 0" result="hardAlpha"/>
<feOffset dx="-2.5" dy="-2.5"/>
<feGaussianBlur stdDeviation="2.5"/>
<feComposite in2="hardAlpha" operator="arithmetic" k2="-1" k3="1"/>
<feColorMatrix type="matrix" values="0 0 0 0 0.980392 0 0 0 0 0.984314 0 0 0 0 1 0 0 0 1 0"/>
<feBlend mode="normal" in2="effect1_innerShadow_50_102" result="effect2_innerShadow_50_102"/>
</filter>
<filter id="filter4_ii_50_102" x="129.5" y="394.5" width="94" height="93" filterUnits="userSpaceOnUse" color-interpolation-filters="sRGB">
<feFlood flood-opacity="0" result="BackgroundImageFix"/>
<feBlend mode="normal" in="SourceGraphic" in2="BackgroundImageFix" result="shape"/>
<feColorMatrix in="SourceAlpha" type="matrix" values="0 0 0 0 0 0 0 0 0 0 0 0 0 0 0 0 0 0 127 0" result="hardAlpha"/>
<feOffset dx="2.5" dy="2.5"/>
<feGaussianBlur stdDeviation="2.5"/>
<feComposite in2="hardAlpha" operator="arithmetic" k2="-1" k3="1"/>
<feColorMatrix type="matrix" values="0 0 0 0 0.65098 0 0 0 0 0.670588 0 0 0 0 0.741176 0 0 0 1 0"/>
<feBlend mode="normal" in2="shape" result="effect1_innerShadow_50_102"/>
<feColorMatrix in="SourceAlpha" type="matrix" values="0 0 0 0 0 0 0 0 0 0 0 0 0 0 0 0 0 0 127 0" result="hardAlpha"/>
<feOffset dx="-2.5" dy="-2.5"/>
<feGaussianBlur stdDeviation="2.5"/>
<feComposite in2="hardAlpha" operator="arithmetic" k2="-1" k3="1"/>
<feColorMatrix type="matrix" values="0 0 0 0 0.980392 0 0 0 0 0.984314 0 0 0 0 1 0 0 0 1 0"/>
<feBlend mode="normal" in2="effect1_innerShadow_50_102" result="effect2_innerShadow_50_102"/>
</filter>
<linearGradient id="paint0_linear_50_102" x1="267.326" y1="53.0438" x2="179.689" y2="-43.2709" gradientUnits="userSpaceOnUse">
<stop/>
<stop offset="1" stop-color="white"/>
</linearGradient>
<linearGradient id="paint1_linear_50_102" x1="268.71" y1="149.907" x2="181.072" y2="53.5919" gradientUnits="userSpaceOnUse">
<stop/>
<stop offset="1" stop-color="white"/>
</linearGradient>
<linearGradient id="paint2_linear_50_102" x1="270.139" y1="247.231" x2="181.579" y2="149.902" gradientUnits="userSpaceOnUse">
<stop/>
<stop offset="1" stop-color="white"/>
</linearGradient>
<linearGradient id="paint3_linear_50_102" x1="270.139" y1="344.093" x2="181.579" y2="246.765" gradientUnits="userSpaceOnUse">
<stop/>
<stop offset="1" stop-color="white"/>
</linearGradient>
<linearGradient id="paint4_linear_50_102" x1="269.906" y1="441" x2="182.005" y2="343.298" gradientUnits="userSpaceOnUse">
<stop/>
<stop offset="1" stop-color="white"/>
</linearGradient>
</defs>
</svg>
