<svg width="357" height="494" viewBox="0 0 357 494" fill="none" xmlns="http://www.w3.org/2000/svg">
<rect x="167" y="418" width="190" height="50" rx="25" fill="#60CBFE"/>
<rect y="323" width="177" height="55" rx="27.5" fill="#FEC82F"/>
<rect x="161" y="227" width="196" height="53" rx="26.5" fill="#60CBFE"/>
<rect y="128" width="148" height="53" rx="26.5" fill="#FEC82F"/>
<rect x="205" y="32" width="152" height="53" rx="26.5" fill="#60CBFE"/>
<path fill-rule="evenodd" clip-rule="evenodd" d="M176.734 0.12635C175.515 0.0425797 174.284 0 173.044 0C143.749 0 120 23.7486 120 53.0439C120 82.3392 143.749 106.088 173.044 106.088C174.284 106.088 175.515 106.045 176.734 105.961V0.12635Z" fill="#EBEBE5" fill-opacity="0.97"/>
<path fill-rule="evenodd" clip-rule="evenodd" d="M176.734 202.824C177.953 202.908 179.183 202.951 180.424 202.951C209.719 202.951 233.468 179.202 233.468 149.907C233.468 120.611 209.719 96.8628 180.424 96.8628C179.183 96.8628 177.953 96.9054 176.734 96.9891V202.824Z" fill="#EBEBE5" fill-opacity="0.97"/>
<path fill-rule="evenodd" clip-rule="evenodd" d="M176.734 193.852C175.515 193.768 174.284 193.725 173.044 193.725C143.749 193.725 120 217.474 120 246.769C120 276.065 143.749 299.813 173.044 299.813C174.284 299.813 175.515 299.771 176.734 299.687V193.852Z" fill="#EBEBE5" fill-opacity="0.97"/>
<path fill-rule="evenodd" clip-rule="evenodd" d="M176.734 388.039C175.515 387.955 174.284 387.912 173.044 387.912C143.749 387.912 120 411.661 120 440.956C120 470.251 143.749 494 173.044 494C174.284 494 175.515 493.957 176.734 493.874V388.039Z" fill="#EBEBE5" fill-opacity="0.97"/>
<path fill-rule="evenodd" clip-rule="evenodd" d="M176.734 397.011C177.953 397.095 179.183 397.137 180.424 397.137C209.719 397.137 233.468 373.389 233.468 344.093C233.468 314.798 209.719 291.05 180.424 291.05C179.183 291.05 177.953 291.092 176.734 291.176V397.011Z" fill="#EBEBE5" fill-opacity="0.97"/>
<path fill-rule="evenodd" clip-rule="evenodd" d="M176.734 105.961C177.953 106.045 179.183 106.088 180.424 106.088C209.719 106.088 233.468 82.3392 233.468 53.0439C233.468 23.7486 209.719 0 180.424 0C179.183 0 177.953 0.0425767 176.734 0.126348V105.961Z" fill="#60CBFE"/>
<path fill-rule="evenodd" clip-rule="evenodd" d="M176.734 299.687C177.953 299.771 179.183 299.813 180.424 299.813C209.719 299.813 233.468 276.065 233.468 246.769C233.468 217.474 209.719 193.725 180.424 193.725C179.183 193.725 177.953 193.768 176.734 193.852V299.687Z" fill="#60CBFE"/>
<path fill-rule="evenodd" clip-rule="evenodd" d="M176.734 493.874C177.953 493.957 179.183 494 180.424 494C209.719 494 233.468 470.251 233.468 440.956C233.468 411.661 209.719 387.912 180.424 387.912C179.183 387.912 177.953 387.955 176.734 388.039V493.874Z" fill="#60CBFE"/>
<path fill-rule="evenodd" clip-rule="evenodd" d="M176.734 291.176C175.515 291.092 174.284 291.049 173.044 291.049C143.749 291.049 120 314.798 120 344.093C120 373.389 143.749 397.137 173.044 397.137C174.284 397.137 175.515 397.095 176.734 397.011V291.176Z" fill="#FEC82F"/>
<path fill-rule="evenodd" clip-rule="evenodd" d="M176.734 96.9891C175.515 96.9054 174.284 96.8628 173.044 96.8628C143.749 96.8628 120 120.611 120 149.907C120 179.202 143.749 202.951 173.044 202.951C174.284 202.951 175.515 202.908 176.734 202.824V96.9891Z" fill="#FEC82F"/>
<path fill-rule="evenodd" clip-rule="evenodd" d="M176.734 0.12635C175.515 0.0425797 174.284 0 173.044 0C143.749 0 120 23.7486 120 53.0439C120 82.3392 143.749 106.088 173.044 106.088C174.284 106.088 175.515 106.045 176.734 105.961V0.12635Z" fill="#60CBFE"/>
<g filter="url(#filter0_ii_192_134)">
<circle cx="175.35" cy="53.0438" r="43.8189" fill="#EBECF0"/>
<circle cx="175.35" cy="53.0438" r="43.8189" fill="url(#paint0_linear_192_134)" fill-opacity="0.4" style="mix-blend-mode:soft-light"/>
</g>
<circle cx="175.35" cy="53.0438" r="43.3189" stroke="white" stroke-opacity="0.4"/>
<g filter="url(#filter1_ii_192_134)">
<circle cx="176.734" cy="149.907" r="43.8189" fill="#EBECF0"/>
<circle cx="176.734" cy="149.907" r="43.8189" fill="url(#paint1_linear_192_134)" fill-opacity="0.4" style="mix-blend-mode:soft-light"/>
</g>
<circle cx="176.734" cy="149.907" r="43.3189" stroke="white" stroke-opacity="0.4"/>
<g filter="url(#filter2_ii_192_134)">
<circle cx="177.195" cy="247.231" r="44.2801" fill="#EBECF0"/>
<circle cx="177.195" cy="247.231" r="44.2801" fill="url(#paint2_linear_192_134)" fill-opacity="0.4" style="mix-blend-mode:soft-light"/>
</g>
<circle cx="177.195" cy="247.231" r="43.7801" stroke="white" stroke-opacity="0.4"/>
<g filter="url(#filter3_ii_192_134)">
<circle cx="177.195" cy="344.093" r="44.2801" fill="#EBECF0"/>
<circle cx="177.195" cy="344.093" r="44.2801" fill="url(#paint3_linear_192_134)" fill-opacity="0.4" style="mix-blend-mode:soft-light"/>
</g>
<circle cx="177.195" cy="344.093" r="43.7801" stroke="white" stroke-opacity="0.4"/>
<path fill-rule="evenodd" clip-rule="evenodd" d="M176.734 388.039C175.515 387.955 174.284 387.912 173.044 387.912C143.749 387.912 120 411.661 120 440.956C120 470.251 143.749 494 173.044 494C174.284 494 175.515 493.957 176.734 493.874V388.039Z" fill="#60CBFE"/>
<g filter="url(#filter4_ii_192_134)">
<ellipse cx="176.5" cy="441" rx="44.5" ry="44" fill="#EBECF0"/>
<ellipse cx="176.5" cy="441" rx="44.5" ry="44" fill="url(#paint4_linear_192_134)" fill-opacity="0.4" style="mix-blend-mode:soft-light"/>
</g>
<path d="M220.5 441C220.5 465.019 200.806 484.5 176.5 484.5C152.194 484.5 132.5 465.019 132.5 441C132.5 416.981 152.194 397.5 176.5 397.5C200.806 397.5 220.5 416.981 220.5 441Z" stroke="white" stroke-opacity="0.4"/>
<circle cx="176.734" cy="53.0439" r="36.9001" fill="#60CBFE"/>
<circle cx="176.734" cy="150.829" r="36.9001" fill="#FEC82F"/>
<circle cx="177.656" cy="248.153" r="36.9001" fill="#60CBFE"/>
<circle cx="176.734" cy="345.477" r="36.9001" fill="#FEC82F"/>
<circle cx="176.734" cy="443.262" r="36.9001" fill="#60CBFE"/>
<path fill-rule="evenodd" clip-rule="evenodd" d="M176.5 325.942C188.982 312.256 220.191 336.205 176.5 367C132.809 336.208 164.018 312.256 176.5 325.942Z" fill="black"/>
<path d="M262.305 62.3125V64H256.586V62.3125H262.305ZM257.234 52.625V64H255.086V52.625H257.234ZM272.438 58.0234V58.6094C272.438 59.4688 272.323 60.2422 272.094 60.9297C271.865 61.612 271.539 62.1927 271.117 62.6719C270.695 63.151 270.193 63.5182 269.609 63.7734C269.026 64.0286 268.378 64.1562 267.664 64.1562C266.961 64.1562 266.315 64.0286 265.727 63.7734C265.143 63.5182 264.638 63.151 264.211 62.6719C263.784 62.1927 263.453 61.612 263.219 60.9297C262.984 60.2422 262.867 59.4688 262.867 58.6094V58.0234C262.867 57.1589 262.984 56.3854 263.219 55.7031C263.453 55.0208 263.781 54.4401 264.203 53.9609C264.625 53.4766 265.128 53.1068 265.711 52.8516C266.299 52.5964 266.945 52.4688 267.648 52.4688C268.362 52.4688 269.01 52.5964 269.594 52.8516C270.177 53.1068 270.68 53.4766 271.102 53.9609C271.529 54.4401 271.857 55.0208 272.086 55.7031C272.32 56.3854 272.438 57.1589 272.438 58.0234ZM270.266 58.6094V58.0078C270.266 57.388 270.208 56.8438 270.094 56.375C269.979 55.901 269.81 55.5026 269.586 55.1797C269.362 54.8568 269.086 54.6146 268.758 54.4531C268.43 54.2865 268.06 54.2031 267.648 54.2031C267.232 54.2031 266.862 54.2865 266.539 54.4531C266.221 54.6146 265.951 54.8568 265.727 55.1797C265.503 55.5026 265.331 55.901 265.211 56.375C265.096 56.8438 265.039 57.388 265.039 58.0078V58.6094C265.039 59.224 265.096 59.7682 265.211 60.2422C265.331 60.7161 265.503 61.1172 265.727 61.4453C265.956 61.7682 266.232 62.013 266.555 62.1797C266.878 62.3464 267.247 62.4297 267.664 62.4297C268.081 62.4297 268.451 62.3464 268.773 62.1797C269.096 62.013 269.367 61.7682 269.586 61.4453C269.81 61.1172 269.979 60.7161 270.094 60.2422C270.208 59.7682 270.266 59.224 270.266 58.6094ZM280.914 60.2578H283.062C283.005 61.0182 282.794 61.6927 282.43 62.2812C282.065 62.8646 281.557 63.3229 280.906 63.6562C280.255 63.9896 279.466 64.1562 278.539 64.1562C277.826 64.1562 277.182 64.0312 276.609 63.7812C276.042 63.526 275.555 63.1641 275.148 62.6953C274.747 62.2214 274.44 61.6536 274.227 60.9922C274.013 60.3255 273.906 59.5781 273.906 58.75V57.8828C273.906 57.0547 274.016 56.3073 274.234 55.6406C274.453 54.974 274.766 54.4062 275.172 53.9375C275.583 53.4635 276.076 53.099 276.648 52.8438C277.227 52.5885 277.872 52.4609 278.586 52.4609C279.513 52.4609 280.297 52.6328 280.938 52.9766C281.578 53.3151 282.076 53.7812 282.43 54.375C282.784 54.9688 282.997 55.651 283.07 56.4219H280.922C280.88 55.9427 280.776 55.5365 280.609 55.2031C280.448 54.8698 280.203 54.6172 279.875 54.4453C279.552 54.2682 279.122 54.1797 278.586 54.1797C278.169 54.1797 277.802 54.2578 277.484 54.4141C277.172 54.5703 276.911 54.8047 276.703 55.1172C276.495 55.4245 276.339 55.8099 276.234 56.2734C276.13 56.7318 276.078 57.263 276.078 57.8672V58.75C276.078 59.3281 276.125 59.8464 276.219 60.3047C276.312 60.763 276.458 61.151 276.656 61.4688C276.854 61.7865 277.109 62.0286 277.422 62.1953C277.734 62.362 278.107 62.4453 278.539 62.4453C279.065 62.4453 279.492 62.362 279.82 62.1953C280.154 62.0286 280.406 61.7839 280.578 61.4609C280.755 61.138 280.867 60.737 280.914 60.2578ZM289.25 54.3516L286.008 64H283.734L287.984 52.625H289.438L289.25 54.3516ZM291.961 64L288.703 54.3516L288.508 52.625H289.969L294.242 64H291.961ZM291.812 59.7734V61.4688H285.711V59.7734H291.812ZM299.312 52.625V64H297.172V52.625H299.312ZM302.844 52.625V54.3203H293.68V52.625H302.844ZM311.812 62.3125V64H305.766V62.3125H311.812ZM306.422 52.625V64H304.273V52.625H306.422ZM311.023 57.3203V58.9688H305.766V57.3203H311.023ZM311.789 52.625V54.3203H305.766V52.625H311.789Z" fill="black"/>
<path d="M55.0391 157.047C55.0391 156.828 55.0052 156.633 54.9375 156.461C54.875 156.284 54.7578 156.125 54.5859 155.984C54.4193 155.839 54.1823 155.698 53.875 155.562C53.5729 155.422 53.1823 155.276 52.7031 155.125C52.1719 154.958 51.6771 154.771 51.2188 154.562C50.7604 154.354 50.3568 154.112 50.0078 153.836C49.6641 153.56 49.3958 153.242 49.2031 152.883C49.0104 152.518 48.9141 152.096 48.9141 151.617C48.9141 151.148 49.013 150.721 49.2109 150.336C49.4141 149.951 49.7005 149.62 50.0703 149.344C50.4401 149.062 50.875 148.846 51.375 148.695C51.8802 148.544 52.4375 148.469 53.0469 148.469C53.8906 148.469 54.6198 148.622 55.2344 148.93C55.8542 149.237 56.3333 149.654 56.6719 150.18C57.0104 150.706 57.1797 151.297 57.1797 151.953H55.0391C55.0391 151.599 54.9635 151.286 54.8125 151.016C54.6667 150.745 54.4427 150.531 54.1406 150.375C53.8438 150.219 53.4688 150.141 53.0156 150.141C52.5781 150.141 52.2135 150.206 51.9219 150.336C51.6354 150.466 51.4193 150.643 51.2734 150.867C51.1328 151.091 51.0625 151.341 51.0625 151.617C51.0625 151.826 51.112 152.013 51.2109 152.18C51.3099 152.341 51.4583 152.495 51.6562 152.641C51.8542 152.781 52.099 152.914 52.3906 153.039C52.6875 153.159 53.0312 153.279 53.4219 153.398C54.0469 153.586 54.5938 153.794 55.0625 154.023C55.5365 154.253 55.9297 154.513 56.2422 154.805C56.5599 155.096 56.7969 155.424 56.9531 155.789C57.1146 156.154 57.1953 156.568 57.1953 157.031C57.1953 157.521 57.099 157.958 56.9062 158.344C56.7135 158.729 56.4375 159.057 56.0781 159.328C55.7188 159.599 55.2865 159.805 54.7812 159.945C54.2812 160.086 53.7214 160.156 53.1016 160.156C52.5495 160.156 52.0026 160.083 51.4609 159.938C50.9245 159.786 50.4375 159.562 50 159.266C49.5625 158.964 49.2135 158.583 48.9531 158.125C48.6927 157.661 48.5625 157.12 48.5625 156.5H50.7188C50.7188 156.859 50.776 157.167 50.8906 157.422C51.0104 157.672 51.1771 157.878 51.3906 158.039C51.6094 158.195 51.8646 158.31 52.1562 158.383C52.4479 158.456 52.763 158.492 53.1016 158.492C53.5391 158.492 53.8984 158.432 54.1797 158.312C54.4661 158.188 54.6797 158.016 54.8203 157.797C54.9661 157.578 55.0391 157.328 55.0391 157.047ZM66.3984 153.32V155.008H60.4141V153.32H66.3984ZM61 148.625V160H58.8516V148.625H61ZM67.9922 148.625V160H65.8438V148.625H67.9922ZM74.8438 150.352L71.6016 160H69.3281L73.5781 148.625H75.0312L74.8438 150.352ZM77.5547 160L74.2969 150.352L74.1016 148.625H75.5625L79.8359 160H77.5547ZM77.4062 155.773V157.469H71.3047V155.773H77.4062ZM81.0078 148.625H85.1406C86.0052 148.625 86.7474 148.755 87.3672 149.016C87.987 149.276 88.4635 149.661 88.7969 150.172C89.1302 150.682 89.2969 151.31 89.2969 152.055C89.2969 152.643 89.1927 153.154 88.9844 153.586C88.776 154.018 88.4818 154.38 88.1016 154.672C87.7266 154.964 87.2839 155.193 86.7734 155.359L86.1016 155.703H82.4531L82.4375 154.008H85.1641C85.6068 154.008 85.974 153.93 86.2656 153.773C86.5573 153.617 86.776 153.401 86.9219 153.125C87.0729 152.849 87.1484 152.534 87.1484 152.18C87.1484 151.799 87.0755 151.471 86.9297 151.195C86.7839 150.914 86.5625 150.698 86.2656 150.547C85.9688 150.396 85.5938 150.32 85.1406 150.32H83.1562V160H81.0078V148.625ZM87.4297 160L84.7969 154.906L87.0703 154.898L89.7344 159.891V160H87.4297ZM98.7188 158.312V160H92.6719V158.312H98.7188ZM93.3281 148.625V160H91.1797V148.625H93.3281ZM97.9297 153.32V154.969H92.6719V153.32H97.9297ZM98.6953 148.625V150.32H92.6719V148.625H98.6953Z" fill="black"/>
<path d="M257.617 257.312V259H251.57V257.312H257.617ZM252.227 247.625V259H250.078V247.625H252.227ZM256.828 252.32V253.969H251.57V252.32H256.828ZM257.594 247.625V249.32H251.57V247.625H257.594ZM262.508 259H260.055L260.07 257.312H262.508C263.169 257.312 263.724 257.167 264.172 256.875C264.62 256.578 264.958 256.154 265.188 255.602C265.417 255.044 265.531 254.378 265.531 253.602V253.016C265.531 252.417 265.466 251.888 265.336 251.43C265.206 250.971 265.013 250.586 264.758 250.273C264.508 249.961 264.198 249.724 263.828 249.562C263.458 249.401 263.034 249.32 262.555 249.32H260.008V247.625H262.555C263.315 247.625 264.008 247.753 264.633 248.008C265.263 248.263 265.807 248.63 266.266 249.109C266.729 249.583 267.083 250.151 267.328 250.812C267.578 251.474 267.703 252.214 267.703 253.031V253.602C267.703 254.414 267.578 255.154 267.328 255.82C267.083 256.482 266.729 257.049 266.266 257.523C265.807 257.997 265.26 258.362 264.625 258.617C263.99 258.872 263.284 259 262.508 259ZM261.258 247.625V259H259.109V247.625H261.258ZM275.859 247.625H278.008V255.18C278.008 256.049 277.82 256.781 277.445 257.375C277.07 257.964 276.56 258.409 275.914 258.711C275.268 259.008 274.534 259.156 273.711 259.156C272.878 259.156 272.135 259.008 271.484 258.711C270.833 258.409 270.323 257.964 269.953 257.375C269.583 256.781 269.398 256.049 269.398 255.18V247.625H271.547V255.18C271.547 255.711 271.635 256.146 271.812 256.484C271.99 256.818 272.24 257.065 272.562 257.227C272.885 257.388 273.268 257.469 273.711 257.469C274.159 257.469 274.542 257.388 274.859 257.227C275.182 257.065 275.43 256.818 275.602 256.484C275.773 256.146 275.859 255.711 275.859 255.18V247.625ZM286.703 255.258H288.852C288.794 256.018 288.583 256.693 288.219 257.281C287.854 257.865 287.346 258.323 286.695 258.656C286.044 258.99 285.255 259.156 284.328 259.156C283.615 259.156 282.971 259.031 282.398 258.781C281.831 258.526 281.344 258.164 280.938 257.695C280.536 257.221 280.229 256.654 280.016 255.992C279.802 255.326 279.695 254.578 279.695 253.75V252.883C279.695 252.055 279.805 251.307 280.023 250.641C280.242 249.974 280.555 249.406 280.961 248.938C281.372 248.464 281.865 248.099 282.438 247.844C283.016 247.589 283.661 247.461 284.375 247.461C285.302 247.461 286.086 247.633 286.727 247.977C287.367 248.315 287.865 248.781 288.219 249.375C288.573 249.969 288.786 250.651 288.859 251.422H286.711C286.669 250.943 286.565 250.536 286.398 250.203C286.237 249.87 285.992 249.617 285.664 249.445C285.341 249.268 284.911 249.18 284.375 249.18C283.958 249.18 283.591 249.258 283.273 249.414C282.961 249.57 282.701 249.805 282.492 250.117C282.284 250.424 282.128 250.81 282.023 251.273C281.919 251.732 281.867 252.263 281.867 252.867V253.75C281.867 254.328 281.914 254.846 282.008 255.305C282.102 255.763 282.247 256.151 282.445 256.469C282.643 256.786 282.898 257.029 283.211 257.195C283.523 257.362 283.896 257.445 284.328 257.445C284.854 257.445 285.281 257.362 285.609 257.195C285.943 257.029 286.195 256.784 286.367 256.461C286.544 256.138 286.656 255.737 286.703 255.258ZM295.039 249.352L291.797 259H289.523L293.773 247.625H295.227L295.039 249.352ZM297.75 259L294.492 249.352L294.297 247.625H295.758L300.031 259H297.75ZM297.602 254.773V256.469H291.5V254.773H297.602ZM305.102 247.625V259H302.961V247.625H305.102ZM308.633 247.625V249.32H299.469V247.625H308.633ZM317.602 257.312V259H311.555V257.312H317.602ZM312.211 247.625V259H310.062V247.625H312.211ZM316.812 252.32V253.969H311.555V252.32H316.812ZM317.578 247.625V249.32H311.555V247.625H317.578Z" fill="black"/>
<path d="M254.461 443.852H251.531V442.164H254.461C254.94 442.164 255.328 442.086 255.625 441.93C255.927 441.768 256.148 441.549 256.289 441.273C256.43 440.992 256.5 440.672 256.5 440.312C256.5 439.964 256.43 439.638 256.289 439.336C256.148 439.034 255.927 438.789 255.625 438.602C255.328 438.414 254.94 438.32 254.461 438.32H252.234V448H250.086V436.625H254.461C255.346 436.625 256.102 436.784 256.727 437.102C257.357 437.414 257.836 437.849 258.164 438.406C258.497 438.958 258.664 439.589 258.664 440.297C258.664 441.031 258.497 441.664 258.164 442.195C257.836 442.727 257.357 443.135 256.727 443.422C256.102 443.708 255.346 443.852 254.461 443.852ZM260.352 436.625H264.484C265.349 436.625 266.091 436.755 266.711 437.016C267.331 437.276 267.807 437.661 268.141 438.172C268.474 438.682 268.641 439.31 268.641 440.055C268.641 440.643 268.536 441.154 268.328 441.586C268.12 442.018 267.826 442.38 267.445 442.672C267.07 442.964 266.628 443.193 266.117 443.359L265.445 443.703H261.797L261.781 442.008H264.508C264.951 442.008 265.318 441.93 265.609 441.773C265.901 441.617 266.12 441.401 266.266 441.125C266.417 440.849 266.492 440.534 266.492 440.18C266.492 439.799 266.419 439.471 266.273 439.195C266.128 438.914 265.906 438.698 265.609 438.547C265.312 438.396 264.938 438.32 264.484 438.32H262.5V448H260.352V436.625ZM266.773 448L264.141 442.906L266.414 442.898L269.078 447.891V448H266.773ZM279.734 442.023V442.609C279.734 443.469 279.62 444.242 279.391 444.93C279.161 445.612 278.836 446.193 278.414 446.672C277.992 447.151 277.49 447.518 276.906 447.773C276.323 448.029 275.674 448.156 274.961 448.156C274.258 448.156 273.612 448.029 273.023 447.773C272.44 447.518 271.935 447.151 271.508 446.672C271.081 446.193 270.75 445.612 270.516 444.93C270.281 444.242 270.164 443.469 270.164 442.609V442.023C270.164 441.159 270.281 440.385 270.516 439.703C270.75 439.021 271.078 438.44 271.5 437.961C271.922 437.477 272.424 437.107 273.008 436.852C273.596 436.596 274.242 436.469 274.945 436.469C275.659 436.469 276.307 436.596 276.891 436.852C277.474 437.107 277.977 437.477 278.398 437.961C278.826 438.44 279.154 439.021 279.383 439.703C279.617 440.385 279.734 441.159 279.734 442.023ZM277.562 442.609V442.008C277.562 441.388 277.505 440.844 277.391 440.375C277.276 439.901 277.107 439.503 276.883 439.18C276.659 438.857 276.383 438.615 276.055 438.453C275.727 438.286 275.357 438.203 274.945 438.203C274.529 438.203 274.159 438.286 273.836 438.453C273.518 438.615 273.247 438.857 273.023 439.18C272.799 439.503 272.628 439.901 272.508 440.375C272.393 440.844 272.336 441.388 272.336 442.008V442.609C272.336 443.224 272.393 443.768 272.508 444.242C272.628 444.716 272.799 445.117 273.023 445.445C273.253 445.768 273.529 446.013 273.852 446.18C274.174 446.346 274.544 446.43 274.961 446.43C275.378 446.43 275.747 446.346 276.07 446.18C276.393 446.013 276.664 445.768 276.883 445.445C277.107 445.117 277.276 444.716 277.391 444.242C277.505 443.768 277.562 443.224 277.562 442.609ZM285.984 436.625V448H283.844V436.625H285.984ZM289.516 436.625V438.32H280.352V436.625H289.516ZM298.484 446.312V448H292.438V446.312H298.484ZM293.094 436.625V448H290.945V436.625H293.094ZM297.695 441.32V442.969H292.438V441.32H297.695ZM298.461 436.625V438.32H292.438V436.625H298.461ZM306.633 444.258H308.781C308.724 445.018 308.513 445.693 308.148 446.281C307.784 446.865 307.276 447.323 306.625 447.656C305.974 447.99 305.185 448.156 304.258 448.156C303.544 448.156 302.901 448.031 302.328 447.781C301.76 447.526 301.273 447.164 300.867 446.695C300.466 446.221 300.159 445.654 299.945 444.992C299.732 444.326 299.625 443.578 299.625 442.75V441.883C299.625 441.055 299.734 440.307 299.953 439.641C300.172 438.974 300.484 438.406 300.891 437.938C301.302 437.464 301.794 437.099 302.367 436.844C302.945 436.589 303.591 436.461 304.305 436.461C305.232 436.461 306.016 436.633 306.656 436.977C307.297 437.315 307.794 437.781 308.148 438.375C308.503 438.969 308.716 439.651 308.789 440.422H306.641C306.599 439.943 306.495 439.536 306.328 439.203C306.167 438.87 305.922 438.617 305.594 438.445C305.271 438.268 304.841 438.18 304.305 438.18C303.888 438.18 303.521 438.258 303.203 438.414C302.891 438.57 302.63 438.805 302.422 439.117C302.214 439.424 302.057 439.81 301.953 440.273C301.849 440.732 301.797 441.263 301.797 441.867V442.75C301.797 443.328 301.844 443.846 301.938 444.305C302.031 444.763 302.177 445.151 302.375 445.469C302.573 445.786 302.828 446.029 303.141 446.195C303.453 446.362 303.826 446.445 304.258 446.445C304.784 446.445 305.211 446.362 305.539 446.195C305.872 446.029 306.125 445.784 306.297 445.461C306.474 445.138 306.586 444.737 306.633 444.258ZM315.094 436.625V448H312.953V436.625H315.094ZM318.625 436.625V438.32H309.461V436.625H318.625Z" fill="black"/>
<path d="M60.7422 352.258H62.8906C62.8333 353.018 62.6224 353.693 62.2578 354.281C61.8932 354.865 61.3854 355.323 60.7344 355.656C60.0833 355.99 59.2943 356.156 58.3672 356.156C57.6536 356.156 57.0104 356.031 56.4375 355.781C55.8698 355.526 55.3828 355.164 54.9766 354.695C54.5755 354.221 54.2682 353.654 54.0547 352.992C53.8411 352.326 53.7344 351.578 53.7344 350.75V349.883C53.7344 349.055 53.8438 348.307 54.0625 347.641C54.2812 346.974 54.5938 346.406 55 345.938C55.4115 345.464 55.9036 345.099 56.4766 344.844C57.0547 344.589 57.7005 344.461 58.4141 344.461C59.3411 344.461 60.125 344.633 60.7656 344.977C61.4062 345.315 61.9036 345.781 62.2578 346.375C62.612 346.969 62.8255 347.651 62.8984 348.422H60.75C60.7083 347.943 60.6042 347.536 60.4375 347.203C60.276 346.87 60.0312 346.617 59.7031 346.445C59.3802 346.268 58.9505 346.18 58.4141 346.18C57.9974 346.18 57.6302 346.258 57.3125 346.414C57 346.57 56.7396 346.805 56.5312 347.117C56.3229 347.424 56.1667 347.81 56.0625 348.273C55.9583 348.732 55.9062 349.263 55.9062 349.867V350.75C55.9062 351.328 55.9531 351.846 56.0469 352.305C56.1406 352.763 56.2865 353.151 56.4844 353.469C56.6823 353.786 56.9375 354.029 57.25 354.195C57.5625 354.362 57.9349 354.445 58.3672 354.445C58.8932 354.445 59.3203 354.362 59.6484 354.195C59.9818 354.029 60.2344 353.784 60.4062 353.461C60.5833 353.138 60.6953 352.737 60.7422 352.258ZM69.0781 346.352L65.8359 356H63.5625L67.8125 344.625H69.2656L69.0781 346.352ZM71.7891 356L68.5312 346.352L68.3359 344.625H69.7969L74.0703 356H71.7891ZM71.6406 351.773V353.469H65.5391V351.773H71.6406ZM75.2422 344.625H79.375C80.2396 344.625 80.9818 344.755 81.6016 345.016C82.2214 345.276 82.6979 345.661 83.0312 346.172C83.3646 346.682 83.5312 347.31 83.5312 348.055C83.5312 348.643 83.4271 349.154 83.2188 349.586C83.0104 350.018 82.7161 350.38 82.3359 350.672C81.9609 350.964 81.5182 351.193 81.0078 351.359L80.3359 351.703H76.6875L76.6719 350.008H79.3984C79.8411 350.008 80.2083 349.93 80.5 349.773C80.7917 349.617 81.0104 349.401 81.1562 349.125C81.3073 348.849 81.3828 348.534 81.3828 348.18C81.3828 347.799 81.3099 347.471 81.1641 347.195C81.0182 346.914 80.7969 346.698 80.5 346.547C80.2031 346.396 79.8281 346.32 79.375 346.32H77.3906V356H75.2422V344.625ZM81.6641 356L79.0312 350.906L81.3047 350.898L83.9688 355.891V356H81.6641ZM92.9531 354.312V356H86.9062V354.312H92.9531ZM87.5625 344.625V356H85.4141V344.625H87.5625ZM92.1641 349.32V350.969H86.9062V349.32H92.1641ZM92.9297 344.625V346.32H86.9062V344.625H92.9297Z" fill="black"/>
<path d="M177 32.9999C169.26 32.9999 163 39.2599 163 46.9999C163 50.4799 164 53.7399 165.82 56.6799C167.72 59.7599 170.22 62.3999 172.14 65.4799C173.08 66.9799 173.76 68.3799 174.48 69.9999C175 71.0999 175.42 72.9999 177 72.9999C178.58 72.9999 179 71.0999 179.5 69.9999C180.24 68.3799 180.9 66.9799 181.84 65.4799C183.76 62.4199 186.26 59.7799 188.16 56.6799C190 53.7399 191 50.4799 191 46.9999C191 39.2599 184.74 32.9999 177 32.9999ZM177 52.4999C174.24 52.4999 172 50.2599 172 47.4999C172 44.7399 174.24 42.4999 177 42.4999C179.76 42.4999 182 44.7399 182 47.4999C182 50.2599 179.76 52.4999 177 52.4999Z" fill="black"/>
<path d="M162 136C162 134.409 162.632 132.883 163.757 131.757C164.883 130.632 166.409 130 168 130C169.591 130 171.117 130.632 172.243 131.757C173.368 132.883 174 134.409 174 136C174 137.591 173.368 139.117 172.243 140.243C171.117 141.368 169.591 142 168 142C166.409 142 164.883 141.368 163.757 140.243C162.632 139.117 162 137.591 162 136ZM182.337 140.752L182.463 140.848C183.736 141.792 185.33 142.193 186.898 141.966C188.466 141.738 189.881 140.899 190.832 139.633C191.784 138.366 192.197 136.774 191.979 135.205C191.762 133.635 190.933 132.215 189.672 131.255C188.412 130.295 186.823 129.872 185.252 130.079C183.681 130.286 182.256 131.106 181.287 132.36C180.319 133.614 179.886 135.2 180.082 136.772C180.279 138.345 181.089 139.775 182.337 140.752ZM171.804 145C172.181 144.286 172.698 143.656 173.324 143.147C173.95 142.638 174.672 142.26 175.447 142.037C176.222 141.813 177.035 141.748 177.836 141.846C178.637 141.944 179.41 142.202 180.109 142.605C180.808 143.009 181.418 143.549 181.903 144.193C182.388 144.838 182.739 145.574 182.933 146.357C183.127 147.14 183.162 147.955 183.034 148.751C182.906 149.548 182.619 150.311 182.19 150.994C181.364 152.308 180.061 153.252 178.554 153.625C177.048 153.999 175.455 153.774 174.11 152.999C172.766 152.223 171.775 150.956 171.345 149.464C170.914 147.973 171.079 146.373 171.804 145ZM160.5 145H168.51C167.977 146.523 167.861 148.16 168.174 149.743C168.488 151.325 169.219 152.795 170.292 154H169.5C167.953 154 166.444 154.478 165.18 155.368C163.915 156.258 162.956 157.518 162.435 158.974C161.428 158.569 160.485 158.021 159.636 157.345C157.38 155.53 156 152.848 156 149.5C156 148.307 156.474 147.162 157.318 146.318C158.162 145.474 159.307 145 160.5 145ZM184.5 154C186.046 154 187.555 154.478 188.819 155.368C190.083 156.259 191.041 157.518 191.562 158.974C192.582 158.557 193.527 158.014 194.364 157.345C196.62 155.53 198 152.848 198 149.5C198 148.307 197.526 147.162 196.682 146.318C195.838 145.474 194.693 145 193.5 145H185.49C185.82 145.939 186 146.95 186 148C186.003 150.214 185.186 152.351 183.708 154H184.5ZM188.661 159.784C188.88 160.312 189 160.894 189 161.5C189 164.848 187.623 167.53 185.364 169.345C183.141 171.13 180.159 172 177 172C173.841 172 170.859 171.13 168.636 169.345C166.38 167.53 165 164.848 165 161.5C164.998 160.909 165.114 160.323 165.339 159.776C165.565 159.229 165.896 158.733 166.314 158.314C166.733 157.896 167.229 157.565 167.776 157.339C168.323 157.114 168.909 156.998 169.5 157H184.5C185.391 157 186.263 157.264 187.003 157.76C187.744 158.256 188.321 158.96 188.661 159.784Z" fill="black"/>
<g clip-path="url(#clip0_192_134)">
<path d="M161.992 242.2L178 251.8L202 237.4L178 223L154 237.4H178V242.2H161.992ZM154 242.2V261.4L158.8 256.072V245.08L154 242.2ZM178 271L166 263.8L161.2 260.92V246.52L178 256.6L194.8 246.52V260.92L178 271Z" fill="black"/>
</g>
<g clip-path="url(#clip1_192_134)">
<path d="M159.625 427.141C159.625 425.198 158.366 423.625 156.812 423.625C155.259 423.625 154 425.198 154 427.141V446.608C154 448.85 154.71 450.994 155.976 452.576L163 461.356C163.844 462.411 164.99 463 166.185 463H170.875C172.738 463 174.25 461.11 174.25 458.781V451.847C174.25 449.236 173.42 446.731 171.944 444.886L170.165 442.662L169.096 441.326L166.846 438.514C165.967 437.415 164.54 437.415 163.661 438.514C162.782 439.612 162.782 441.396 163.661 442.495L165.911 445.308L166.98 446.644C167.753 447.61 167.627 449.21 166.72 449.966C166.037 450.537 165.123 450.423 164.54 449.693L160.94 445.202C160.096 444.147 159.625 442.715 159.625 441.221V427.141ZM193.375 427.141V441.221C193.375 442.715 192.904 444.147 192.06 445.202L188.467 449.693C187.884 450.423 186.97 450.537 186.288 449.966C185.38 449.21 185.254 447.602 186.027 446.644L187.096 445.308L189.346 442.495C190.225 441.396 190.225 439.612 189.346 438.514C188.467 437.415 187.04 437.415 186.161 438.514L183.911 441.326L182.842 442.662L181.063 444.886C179.587 446.731 178.757 449.236 178.757 451.847V458.781C178.757 461.11 180.269 463 182.132 463H186.822C188.017 463 189.163 462.411 190.007 461.356L197.031 452.576C198.297 450.994 199.007 448.85 199.007 446.608V427.141C199.007 425.198 197.748 423.625 196.195 423.625C194.641 423.625 193.382 425.198 193.382 427.141H193.375Z" fill="black"/>
<path d="M176.914 417.049C175.345 425.827 170.678 427.595 170.678 433.749C170.678 436.837 173.847 439.107 176.914 439.107C180.049 439.107 183.028 436.984 183.028 434.052C183.028 428.145 178.535 425.81 176.914 417.049H176.914ZM173.84 428.073C172.366 431.909 173.571 435.922 176.701 437.182C177.502 437.504 178.374 437.574 179.227 437.501C173.103 440.029 169.427 433.448 173.84 428.073L173.84 428.073Z" fill="black"/>
</g>
<defs>
<filter id="filter0_ii_192_134" x="129.031" y="6.72498" width="92.6377" height="92.6377" filterUnits="userSpaceOnUse" color-interpolation-filters="sRGB">
<feFlood flood-opacity="0" result="BackgroundImageFix"/>
<feBlend mode="normal" in="SourceGraphic" in2="BackgroundImageFix" result="shape"/>
<feColorMatrix in="SourceAlpha" type="matrix" values="0 0 0 0 0 0 0 0 0 0 0 0 0 0 0 0 0 0 127 0" result="hardAlpha"/>
<feOffset dx="2.5" dy="2.5"/>
<feGaussianBlur stdDeviation="2.5"/>
<feComposite in2="hardAlpha" operator="arithmetic" k2="-1" k3="1"/>
<feColorMatrix type="matrix" values="0 0 0 0 0.65098 0 0 0 0 0.670588 0 0 0 0 0.741176 0 0 0 1 0"/>
<feBlend mode="normal" in2="shape" result="effect1_innerShadow_192_134"/>
<feColorMatrix in="SourceAlpha" type="matrix" values="0 0 0 0 0 0 0 0 0 0 0 0 0 0 0 0 0 0 127 0" result="hardAlpha"/>
<feOffset dx="-2.5" dy="-2.5"/>
<feGaussianBlur stdDeviation="2.5"/>
<feComposite in2="hardAlpha" operator="arithmetic" k2="-1" k3="1"/>
<feColorMatrix type="matrix" values="0 0 0 0 0.980392 0 0 0 0 0.984314 0 0 0 0 1 0 0 0 1 0"/>
<feBlend mode="normal" in2="effect1_innerShadow_192_134" result="effect2_innerShadow_192_134"/>
</filter>
<filter id="filter1_ii_192_134" x="130.415" y="103.588" width="92.6377" height="92.6377" filterUnits="userSpaceOnUse" color-interpolation-filters="sRGB">
<feFlood flood-opacity="0" result="BackgroundImageFix"/>
<feBlend mode="normal" in="SourceGraphic" in2="BackgroundImageFix" result="shape"/>
<feColorMatrix in="SourceAlpha" type="matrix" values="0 0 0 0 0 0 0 0 0 0 0 0 0 0 0 0 0 0 127 0" result="hardAlpha"/>
<feOffset dx="2.5" dy="2.5"/>
<feGaussianBlur stdDeviation="2.5"/>
<feComposite in2="hardAlpha" operator="arithmetic" k2="-1" k3="1"/>
<feColorMatrix type="matrix" values="0 0 0 0 0.65098 0 0 0 0 0.670588 0 0 0 0 0.741176 0 0 0 1 0"/>
<feBlend mode="normal" in2="shape" result="effect1_innerShadow_192_134"/>
<feColorMatrix in="SourceAlpha" type="matrix" values="0 0 0 0 0 0 0 0 0 0 0 0 0 0 0 0 0 0 127 0" result="hardAlpha"/>
<feOffset dx="-2.5" dy="-2.5"/>
<feGaussianBlur stdDeviation="2.5"/>
<feComposite in2="hardAlpha" operator="arithmetic" k2="-1" k3="1"/>
<feColorMatrix type="matrix" values="0 0 0 0 0.980392 0 0 0 0 0.984314 0 0 0 0 1 0 0 0 1 0"/>
<feBlend mode="normal" in2="effect1_innerShadow_192_134" result="effect2_innerShadow_192_134"/>
</filter>
<filter id="filter2_ii_192_134" x="130.415" y="200.45" width="93.5602" height="93.5602" filterUnits="userSpaceOnUse" color-interpolation-filters="sRGB">
<feFlood flood-opacity="0" result="BackgroundImageFix"/>
<feBlend mode="normal" in="SourceGraphic" in2="BackgroundImageFix" result="shape"/>
<feColorMatrix in="SourceAlpha" type="matrix" values="0 0 0 0 0 0 0 0 0 0 0 0 0 0 0 0 0 0 127 0" result="hardAlpha"/>
<feOffset dx="2.5" dy="2.5"/>
<feGaussianBlur stdDeviation="2.5"/>
<feComposite in2="hardAlpha" operator="arithmetic" k2="-1" k3="1"/>
<feColorMatrix type="matrix" values="0 0 0 0 0.65098 0 0 0 0 0.670588 0 0 0 0 0.741176 0 0 0 1 0"/>
<feBlend mode="normal" in2="shape" result="effect1_innerShadow_192_134"/>
<feColorMatrix in="SourceAlpha" type="matrix" values="0 0 0 0 0 0 0 0 0 0 0 0 0 0 0 0 0 0 127 0" result="hardAlpha"/>
<feOffset dx="-2.5" dy="-2.5"/>
<feGaussianBlur stdDeviation="2.5"/>
<feComposite in2="hardAlpha" operator="arithmetic" k2="-1" k3="1"/>
<feColorMatrix type="matrix" values="0 0 0 0 0.980392 0 0 0 0 0.984314 0 0 0 0 1 0 0 0 1 0"/>
<feBlend mode="normal" in2="effect1_innerShadow_192_134" result="effect2_innerShadow_192_134"/>
</filter>
<filter id="filter3_ii_192_134" x="130.415" y="297.313" width="93.5602" height="93.5602" filterUnits="userSpaceOnUse" color-interpolation-filters="sRGB">
<feFlood flood-opacity="0" result="BackgroundImageFix"/>
<feBlend mode="normal" in="SourceGraphic" in2="BackgroundImageFix" result="shape"/>
<feColorMatrix in="SourceAlpha" type="matrix" values="0 0 0 0 0 0 0 0 0 0 0 0 0 0 0 0 0 0 127 0" result="hardAlpha"/>
<feOffset dx="2.5" dy="2.5"/>
<feGaussianBlur stdDeviation="2.5"/>
<feComposite in2="hardAlpha" operator="arithmetic" k2="-1" k3="1"/>
<feColorMatrix type="matrix" values="0 0 0 0 0.65098 0 0 0 0 0.670588 0 0 0 0 0.741176 0 0 0 1 0"/>
<feBlend mode="normal" in2="shape" result="effect1_innerShadow_192_134"/>
<feColorMatrix in="SourceAlpha" type="matrix" values="0 0 0 0 0 0 0 0 0 0 0 0 0 0 0 0 0 0 127 0" result="hardAlpha"/>
<feOffset dx="-2.5" dy="-2.5"/>
<feGaussianBlur stdDeviation="2.5"/>
<feComposite in2="hardAlpha" operator="arithmetic" k2="-1" k3="1"/>
<feColorMatrix type="matrix" values="0 0 0 0 0.980392 0 0 0 0 0.984314 0 0 0 0 1 0 0 0 1 0"/>
<feBlend mode="normal" in2="effect1_innerShadow_192_134" result="effect2_innerShadow_192_134"/>
</filter>
<filter id="filter4_ii_192_134" x="129.5" y="394.5" width="94" height="93" filterUnits="userSpaceOnUse" color-interpolation-filters="sRGB">
<feFlood flood-opacity="0" result="BackgroundImageFix"/>
<feBlend mode="normal" in="SourceGraphic" in2="BackgroundImageFix" result="shape"/>
<feColorMatrix in="SourceAlpha" type="matrix" values="0 0 0 0 0 0 0 0 0 0 0 0 0 0 0 0 0 0 127 0" result="hardAlpha"/>
<feOffset dx="2.5" dy="2.5"/>
<feGaussianBlur stdDeviation="2.5"/>
<feComposite in2="hardAlpha" operator="arithmetic" k2="-1" k3="1"/>
<feColorMatrix type="matrix" values="0 0 0 0 0.65098 0 0 0 0 0.670588 0 0 0 0 0.741176 0 0 0 1 0"/>
<feBlend mode="normal" in2="shape" result="effect1_innerShadow_192_134"/>
<feColorMatrix in="SourceAlpha" type="matrix" values="0 0 0 0 0 0 0 0 0 0 0 0 0 0 0 0 0 0 127 0" result="hardAlpha"/>
<feOffset dx="-2.5" dy="-2.5"/>
<feGaussianBlur stdDeviation="2.5"/>
<feComposite in2="hardAlpha" operator="arithmetic" k2="-1" k3="1"/>
<feColorMatrix type="matrix" values="0 0 0 0 0.980392 0 0 0 0 0.984314 0 0 0 0 1 0 0 0 1 0"/>
<feBlend mode="normal" in2="effect1_innerShadow_192_134" result="effect2_innerShadow_192_134"/>
</filter>
<linearGradient id="paint0_linear_192_134" x1="267.326" y1="53.0438" x2="179.689" y2="-43.2709" gradientUnits="userSpaceOnUse">
<stop/>
<stop offset="1" stop-color="white"/>
</linearGradient>
<linearGradient id="paint1_linear_192_134" x1="268.71" y1="149.907" x2="181.072" y2="53.5919" gradientUnits="userSpaceOnUse">
<stop/>
<stop offset="1" stop-color="white"/>
</linearGradient>
<linearGradient id="paint2_linear_192_134" x1="270.139" y1="247.231" x2="181.579" y2="149.902" gradientUnits="userSpaceOnUse">
<stop/>
<stop offset="1" stop-color="white"/>
</linearGradient>
<linearGradient id="paint3_linear_192_134" x1="270.139" y1="344.093" x2="181.579" y2="246.765" gradientUnits="userSpaceOnUse">
<stop/>
<stop offset="1" stop-color="white"/>
</linearGradient>
<linearGradient id="paint4_linear_192_134" x1="269.906" y1="441" x2="182.005" y2="343.298" gradientUnits="userSpaceOnUse">
<stop/>
<stop offset="1" stop-color="white"/>
</linearGradient>
<clipPath id="clip0_192_134">
<rect width="48" height="48" fill="white" transform="translate(154 223)"/>
</clipPath>
<clipPath id="clip1_192_134">
<rect width="45" height="45" fill="white" transform="translate(154 418)"/>
</clipPath>
</defs>
</svg>
