<svg width="36" height="36" viewBox="0 0 36 36" fill="none" xmlns="http://www.w3.org/2000/svg">
<path d="M24.4688 6.71483C22.7317 4.70873 20.7767 2.90228 18.6398 1.3289C18.4507 1.19639 18.2253 1.12531 17.9944 1.12531C17.7634 1.12531 17.5381 1.19639 17.3489 1.3289C15.216 2.90294 13.2648 4.70936 11.5312 6.71483C7.66547 11.1544 5.625 15.8344 5.625 20.25C5.625 23.532 6.92879 26.6797 9.24955 29.0004C11.5703 31.3212 14.7179 32.625 18 32.625C21.2821 32.625 24.4297 31.3212 26.7504 29.0004C29.0712 26.6797 30.375 23.532 30.375 20.25C30.375 15.8344 28.3345 11.1544 24.4688 6.71483ZM25.8539 21.5634C25.5622 23.1929 24.7782 24.6938 23.6076 25.8642C22.437 27.0345 20.9359 27.8182 19.3064 28.1095C19.2464 28.1192 19.1858 28.1243 19.125 28.125C18.8428 28.1249 18.5709 28.0188 18.3633 27.8277C18.1557 27.6365 18.0275 27.3744 18.0042 27.0931C17.9808 26.8119 18.064 26.5322 18.2372 26.3094C18.4104 26.0866 18.6611 25.9371 18.9394 25.8905C21.2695 25.4981 23.2467 23.5209 23.6419 21.1866C23.6919 20.8923 23.8567 20.6299 24.1001 20.4572C24.3435 20.2844 24.6456 20.2155 24.9398 20.2655C25.2341 20.3154 25.4965 20.4803 25.6692 20.7237C25.8419 20.9671 25.9109 21.2692 25.8609 21.5634H25.8539Z" fill="#2669BA"/>
</svg>
